<svg version="1.1" xmlns="http://www.w3.org/2000/svg" viewBox="0 0 1548 572" width="1548" height="572">
  <!-- svg-source:excalidraw -->
  
  <defs>
    <style class="style-fonts">
      @font-face {
        font-family: "Virgil";
        src: url("https://unpkg.com/@excalidraw/excalidraw@undefined/dist/excalidraw-assets/Virgil.woff2");
      }
      @font-face {
        font-family: "Cascadia";
        src: url("https://unpkg.com/@excalidraw/excalidraw@undefined/dist/excalidraw-assets/Cascadia.woff2");
      }
      @font-face {
        font-family: "Assistant";
        src: url("https://unpkg.com/@excalidraw/excalidraw@undefined/dist/excalidraw-assets/Assistant-Regular.woff2");
      }
    </style>
    
  </defs>
  <rect x="0" y="0" width="1548" height="572" fill="#ffffff"></rect><g transform="translate(24 24) rotate(0 750 16.25)"><text x="0" y="0" font-family="Helvetica, Segoe UI Emoji" font-size="26px" fill="#334155" text-anchor="start" style="white-space: pre;" direction="ltr" dominant-baseline="text-before-edge">S3 · The AI gateway as a platform trust boundary</text></g><g transform="translate(24 60) rotate(0 750 8.75)"><text x="0" y="0" font-family="Helvetica, Segoe UI Emoji" font-size="14px" fill="#334155" text-anchor="start" style="white-space: pre;" direction="ltr" dominant-baseline="text-before-edge">A trust boundary is where authority changes. The gateway mediates auth, routing, and policy between callers and AI services — but a design is an assumption until later sessions evidence it.</text></g><g stroke-linecap="round" transform="translate(24 250) rotate(0 90 50)"><path d="M25 0 C69.49 0, 113.99 0, 155 0 C171.67 0, 180 8.33, 180 25 C180 42.91, 180 60.82, 180 75 C180 91.67, 171.67 100, 155 100 C103.06 100, 51.12 100, 25 100 C8.33 100, 0 91.67, 0 75 C0 61.08, 0 47.16, 0 25 C0 8.33, 8.33 0, 25 0" stroke="none" stroke-width="0" fill="#dcfce7"></path><path d="M25 0 C53.93 0, 82.86 0, 155 0 M25 0 C71.93 0, 118.86 0, 155 0 M155 0 C171.67 0, 180 8.33, 180 25 M155 0 C171.67 0, 180 8.33, 180 25 M180 25 C180 40.2, 180 55.41, 180 75 M180 25 C180 39.74, 180 54.49, 180 75 M180 75 C180 91.67, 171.67 100, 155 100 M180 75 C180 91.67, 171.67 100, 155 100 M155 100 C111.48 100, 67.96 100, 25 100 M155 100 C119.16 100, 83.32 100, 25 100 M25 100 C8.33 100, 0 91.67, 0 75 M25 100 C8.33 100, 0 91.67, 0 75 M0 75 C0 64.93, 0 54.85, 0 25 M0 75 C0 58.8, 0 42.61, 0 25 M0 25 C0 8.33, 8.33 0, 25 0 M0 25 C0 8.33, 8.33 0, 25 0" stroke="#16a34a" stroke-width="2" fill="none"></path></g><g transform="translate(30 264) rotate(0 84 10)"><text x="84" y="0" font-family="Helvetica, Segoe UI Emoji" font-size="16px" fill="#14532d" text-anchor="middle" style="white-space: pre;" direction="ltr" dominant-baseline="text-before-edge">Caller</text></g><g transform="translate(30 290) rotate(0 84 7.8125)"><text x="84" y="0" font-family="Helvetica, Segoe UI Emoji" font-size="12.5px" fill="#14532d" text-anchor="middle" style="white-space: pre;" direction="ltr" dominant-baseline="text-before-edge">person or workload</text></g><g stroke-linecap="round" transform="translate(284 170) rotate(0 150 135)"><path d="M32 0 C124.75 0, 217.51 0, 268 0 C289.33 0, 300 10.67, 300 32 C300 90.97, 300 149.95, 300 238 C300 259.33, 289.33 270, 268 270 C209.59 270, 151.19 270, 32 270 C10.67 270, 0 259.33, 0 238 C0 173.94, 0 109.89, 0 32 C0 10.67, 10.67 0, 32 0" stroke="none" stroke-width="0" fill="#eef2ff"></path><path d="M32 0 C84.56 0, 137.12 0, 268 0 M268 0 C289.33 0, 300 10.67, 300 32 M300 32 C300 91.97, 300 151.94, 300 238 M300 238 C300 259.33, 289.33 270, 268 270 M268 270 C211.56 270, 155.12 270, 32 270 M32 270 C10.67 270, 0 259.33, 0 238 M0 238 C0 196.03, 0 154.06, 0 32 M0 32 C0 10.67, 10.67 0, 32 0" stroke="#475569" stroke-width="2.5" fill="none" stroke-dasharray="8 10"></path></g><g transform="translate(300 182) rotate(0 135 8.75)"><text x="0" y="0" font-family="Helvetica, Segoe UI Emoji" font-size="14px" fill="#334155" text-anchor="start" style="white-space: pre;" direction="ltr" dominant-baseline="text-before-edge">Platform trust boundary</text></g><g stroke-linecap="round" transform="translate(314 240) rotate(0 120 65)"><path d="M32 0 C92.05 0, 152.09 0, 208 0 C229.33 0, 240 10.67, 240 32 C240 53.99, 240 75.97, 240 98 C240 119.33, 229.33 130, 208 130 C158.88 130, 109.77 130, 32 130 C10.67 130, 0 119.33, 0 98 C0 77.85, 0 57.7, 0 32 C0 10.67, 10.67 0, 32 0" stroke="none" stroke-width="0" fill="#e0e7ff"></path><path d="M32 0 C71.22 0, 110.44 0, 208 0 M32 0 C67.3 0, 102.6 0, 208 0 M208 0 C229.33 0, 240 10.67, 240 32 M208 0 C229.33 0, 240 10.67, 240 32 M240 32 C240 53.73, 240 75.46, 240 98 M240 32 C240 55.86, 240 79.71, 240 98 M240 98 C240 119.33, 229.33 130, 208 130 M240 98 C240 119.33, 229.33 130, 208 130 M208 130 C167.19 130, 126.39 130, 32 130 M208 130 C140.57 130, 73.15 130, 32 130 M32 130 C10.67 130, 0 119.33, 0 98 M32 130 C10.67 130, 0 119.33, 0 98 M0 98 C0 79.64, 0 61.29, 0 32 M0 98 C0 79.98, 0 61.95, 0 32 M0 32 C0 10.67, 10.67 0, 32 0 M0 32 C0 10.67, 10.67 0, 32 0" stroke="#4338ca" stroke-width="2" fill="none"></path></g><g transform="translate(320 254) rotate(0 114 10)"><text x="114" y="0" font-family="Helvetica, Segoe UI Emoji" font-size="16px" fill="#312e81" text-anchor="middle" style="white-space: pre;" direction="ltr" dominant-baseline="text-before-edge">AI gateway</text></g><g transform="translate(320 280) rotate(0 114 22.5)"><text x="114" y="0" font-family="Helvetica, Segoe UI Emoji" font-size="12px" fill="#312e81" text-anchor="middle" style="white-space: pre;" direction="ltr" dominant-baseline="text-before-edge">authn · authz · routing</text><text x="114" y="15" font-family="Helvetica, Segoe UI Emoji" font-size="12px" fill="#312e81" text-anchor="middle" style="white-space: pre;" direction="ltr" dominant-baseline="text-before-edge">throttling · logging · policy</text><text x="114" y="30" font-family="Helvetica, Segoe UI Emoji" font-size="12px" fill="#312e81" text-anchor="middle" style="white-space: pre;" direction="ltr" dominant-baseline="text-before-edge">(Azure API Management)</text></g><g stroke-linecap="round" transform="translate(684 250) rotate(0 110 55)"><path d="M27.5 0 C90.29 0, 153.07 0, 192.5 0 C210.83 0, 220 9.17, 220 27.5 C220 49.39, 220 71.29, 220 82.5 C220 100.83, 210.83 110, 192.5 110 C131.98 110, 71.46 110, 27.5 110 C9.17 110, 0 100.83, 0 82.5 C0 64.82, 0 47.15, 0 27.5 C0 9.17, 9.17 0, 27.5 0" stroke="none" stroke-width="0" fill="#f1f5f9"></path><path d="M27.5 0 C64.3 0, 101.1 0, 192.5 0 M27.5 0 C64.51 0, 101.53 0, 192.5 0 M192.5 0 C210.83 0, 220 9.17, 220 27.5 M192.5 0 C210.83 0, 220 9.17, 220 27.5 M220 27.5 C220 42.04, 220 56.57, 220 82.5 M220 27.5 C220 45.18, 220 62.85, 220 82.5 M220 82.5 C220 100.83, 210.83 110, 192.5 110 M220 82.5 C220 100.83, 210.83 110, 192.5 110 M192.5 110 C144.63 110, 96.77 110, 27.5 110 M192.5 110 C151.65 110, 110.81 110, 27.5 110 M27.5 110 C9.17 110, 0 100.83, 0 82.5 M27.5 110 C9.17 110, 0 100.83, 0 82.5 M0 82.5 C0 64.67, 0 46.85, 0 27.5 M0 82.5 C0 66.96, 0 51.41, 0 27.5 M0 27.5 C0 9.17, 9.17 0, 27.5 0 M0 27.5 C0 9.17, 9.17 0, 27.5 0" stroke="#475569" stroke-width="2" fill="none"></path></g><g transform="translate(684 286.25) rotate(0 110 18.75)"><text x="110" y="0" font-family="Helvetica, Segoe UI Emoji" font-size="15px" fill="#334155" text-anchor="middle" style="white-space: pre;" direction="ltr" dominant-baseline="text-before-edge">AI services, tools</text><text x="110" y="18.75" font-family="Helvetica, Segoe UI Emoji" font-size="15px" fill="#334155" text-anchor="middle" style="white-space: pre;" direction="ltr" dominant-baseline="text-before-edge">&amp; model backends</text></g><g stroke-linecap="round"><g transform="translate(204 300) rotate(0 55 2.5)"><path d="M0 0 C24.55 1.12, 49.09 2.23, 110 5 M0 0 C26.42 1.2, 52.83 2.4, 110 5" stroke="#16a34a" stroke-width="2" fill="none"></path></g><g transform="translate(204 300) rotate(0 55 2.5)"><path d="M81.37 13.97 C87.76 11.97, 94.15 9.97, 110 5 M81.37 13.97 C88.25 11.82, 95.12 9.66, 110 5" stroke="#16a34a" stroke-width="2" fill="none"></path></g><g transform="translate(204 300) rotate(0 55 2.5)"><path d="M82.3 -6.53 C88.48 -3.96, 94.67 -1.38, 110 5 M82.3 -6.53 C88.96 -3.76, 95.61 -0.99, 110 5" stroke="#16a34a" stroke-width="2" fill="none"></path></g></g><mask></mask><g stroke-linecap="round"><g transform="translate(554 305) rotate(0 65 0)"><path d="M0 0 C29.02 0, 58.04 0, 130 0 M0 0 C32.25 0, 64.5 0, 130 0" stroke="#4338ca" stroke-width="2" fill="none"></path></g><g transform="translate(554 305) rotate(0 65 0)"><path d="M101.81 10.26 C108.1 7.97, 114.39 5.68, 130 0 M101.81 10.26 C108.8 7.72, 115.8 5.17, 130 0" stroke="#4338ca" stroke-width="2" fill="none"></path></g><g transform="translate(554 305) rotate(0 65 0)"><path d="M101.81 -10.26 C108.1 -7.97, 114.39 -5.68, 130 0 M101.81 -10.26 C108.8 -7.72, 115.8 -5.17, 130 0" stroke="#4338ca" stroke-width="2" fill="none"></path></g></g><mask></mask><g stroke-linecap="round" transform="translate(24 470) rotate(0 110 39)"><path d="M19.5 0 C73.74 0, 127.97 0, 200.5 0 C213.5 0, 220 6.5, 220 19.5 C220 28, 220 36.5, 220 58.5 C220 71.5, 213.5 78, 200.5 78 C137.07 78, 73.65 78, 19.5 78 C6.5 78, 0 71.5, 0 58.5 C0 45.13, 0 31.76, 0 19.5 C0 6.5, 6.5 0, 19.5 0" stroke="none" stroke-width="0" fill="#f8fafc"></path><path d="M19.5 0 C59.91 0, 100.33 0, 200.5 0 M19.5 0 C65.83 0, 112.16 0, 200.5 0 M200.5 0 C213.5 0, 220 6.5, 220 19.5 M200.5 0 C213.5 0, 220 6.5, 220 19.5 M220 19.5 C220 29.03, 220 38.57, 220 58.5 M220 19.5 C220 32.55, 220 45.6, 220 58.5 M220 58.5 C220 71.5, 213.5 78, 200.5 78 M220 58.5 C220 71.5, 213.5 78, 200.5 78 M200.5 78 C133.94 78, 67.37 78, 19.5 78 M200.5 78 C140.14 78, 79.78 78, 19.5 78 M19.5 78 C6.5 78, 0 71.5, 0 58.5 M19.5 78 C6.5 78, 0 71.5, 0 58.5 M0 58.5 C0 43.47, 0 28.43, 0 19.5 M0 58.5 C0 44.38, 0 30.27, 0 19.5 M0 19.5 C0 6.5, 6.5 0, 19.5 0 M0 19.5 C0 6.5, 6.5 0, 19.5 0" stroke="#64748b" stroke-width="2" fill="none"></path></g><g transform="translate(30 484) rotate(0 104 8.4375)"><text x="104" y="0" font-family="Helvetica, Segoe UI Emoji" font-size="13.5px" fill="#334155" text-anchor="middle" style="white-space: pre;" direction="ltr" dominant-baseline="text-before-edge">Private connectivity</text></g><g transform="translate(30 506.875) rotate(0 104 7.1875)"><text x="104" y="0" font-family="Helvetica, Segoe UI Emoji" font-size="11.5px" fill="#334155" text-anchor="middle" style="white-space: pre;" direction="ltr" dominant-baseline="text-before-edge">ingress/egress scope</text></g><g stroke-linecap="round"><g transform="translate(134 470) rotate(0 150 -50)"><path d="M0 0 C67.04 -22.35, 134.08 -44.69, 300 -100" stroke="#64748b" stroke-width="2.5" fill="none" stroke-dasharray="8 10"></path></g></g><mask></mask><g stroke-linecap="round" transform="translate(260 470) rotate(0 110 39)"><path d="M19.5 0 C59.1 0, 98.7 0, 200.5 0 C213.5 0, 220 6.5, 220 19.5 C220 28.78, 220 38.06, 220 58.5 C220 71.5, 213.5 78, 200.5 78 C140.04 78, 79.57 78, 19.5 78 C6.5 78, 0 71.5, 0 58.5 C0 44.29, 0 30.08, 0 19.5 C0 6.5, 6.5 0, 19.5 0" stroke="none" stroke-width="0" fill="#f8fafc"></path><path d="M19.5 0 C59.96 0, 100.42 0, 200.5 0 M19.5 0 C71.56 0, 123.62 0, 200.5 0 M200.5 0 C213.5 0, 220 6.5, 220 19.5 M200.5 0 C213.5 0, 220 6.5, 220 19.5 M220 19.5 C220 28.26, 220 37.02, 220 58.5 M220 19.5 C220 33.07, 220 46.63, 220 58.5 M220 58.5 C220 71.5, 213.5 78, 200.5 78 M220 58.5 C220 71.5, 213.5 78, 200.5 78 M200.5 78 C156.08 78, 111.66 78, 19.5 78 M200.5 78 C160.78 78, 121.07 78, 19.5 78 M19.5 78 C6.5 78, 0 71.5, 0 58.5 M19.5 78 C6.5 78, 0 71.5, 0 58.5 M0 58.5 C0 48.88, 0 39.25, 0 19.5 M0 58.5 C0 49.09, 0 39.68, 0 19.5 M0 19.5 C0 6.5, 6.5 0, 19.5 0 M0 19.5 C0 6.5, 6.5 0, 19.5 0" stroke="#64748b" stroke-width="2" fill="none"></path></g><g transform="translate(266 484) rotate(0 104 8.4375)"><text x="104" y="0" font-family="Helvetica, Segoe UI Emoji" font-size="13.5px" fill="#334155" text-anchor="middle" style="white-space: pre;" direction="ltr" dominant-baseline="text-before-edge">Hybrid dependencies</text></g><g transform="translate(266 506.875) rotate(0 104 7.1875)"><text x="104" y="0" font-family="Helvetica, Segoe UI Emoji" font-size="11.5px" fill="#334155" text-anchor="middle" style="white-space: pre;" direction="ltr" dominant-baseline="text-before-edge">identity · logging · IR</text></g><g stroke-linecap="round"><g transform="translate(370 470) rotate(0 32 -50)"><path d="M0 0 C14.32 -22.37, 28.64 -44.74, 64 -100" stroke="#64748b" stroke-width="2.5" fill="none" stroke-dasharray="8 10"></path></g></g><mask></mask><g stroke-linecap="round" transform="translate(496 470) rotate(0 110 39)"><path d="M19.5 0 C80.66 0, 141.82 0, 200.5 0 C213.5 0, 220 6.5, 220 19.5 C220 29.56, 220 39.61, 220 58.5 C220 71.5, 213.5 78, 200.5 78 C143 78, 85.5 78, 19.5 78 C6.5 78, 0 71.5, 0 58.5 C0 43.45, 0 28.41, 0 19.5 C0 6.5, 6.5 0, 19.5 0" stroke="none" stroke-width="0" fill="#f8fafc"></path><path d="M19.5 0 C60.01 0, 100.51 0, 200.5 0 M19.5 0 C77.29 0, 135.08 0, 200.5 0 M200.5 0 C213.5 0, 220 6.5, 220 19.5 M200.5 0 C213.5 0, 220 6.5, 220 19.5 M220 19.5 C220 27.48, 220 35.47, 220 58.5 M220 19.5 C220 33.58, 220 47.66, 220 58.5 M220 58.5 C220 71.5, 213.5 78, 200.5 78 M220 58.5 C220 71.5, 213.5 78, 200.5 78 M200.5 78 C142.02 78, 83.55 78, 19.5 78 M200.5 78 C145.23 78, 89.96 78, 19.5 78 M19.5 78 C6.5 78, 0 71.5, 0 58.5 M19.5 78 C6.5 78, 0 71.5, 0 58.5 M0 58.5 C0 46.48, 0 34.47, 0 19.5 M0 58.5 C0 46, 0 33.49, 0 19.5 M0 19.5 C0 6.5, 6.5 0, 19.5 0 M0 19.5 C0 6.5, 6.5 0, 19.5 0" stroke="#64748b" stroke-width="2" fill="none"></path></g><g transform="translate(502 484) rotate(0 104 8.4375)"><text x="104" y="0" font-family="Helvetica, Segoe UI Emoji" font-size="13.5px" fill="#334155" text-anchor="middle" style="white-space: pre;" direction="ltr" dominant-baseline="text-before-edge">Identity boundary</text></g><g transform="translate(502 506.875) rotate(0 104 7.1875)"><text x="104" y="0" font-family="Helvetica, Segoe UI Emoji" font-size="11.5px" fill="#334155" text-anchor="middle" style="white-space: pre;" direction="ltr" dominant-baseline="text-before-edge">who starts the action</text></g><g stroke-linecap="round"><g transform="translate(606 470) rotate(0 -86 -50)"><path d="M0 0 C-38.52 -22.4, -77.05 -44.79, -172 -100" stroke="#64748b" stroke-width="2.5" fill="none" stroke-dasharray="8 10"></path></g></g><mask></mask><g stroke-linecap="round" transform="translate(732 470) rotate(0 110 39)"><path d="M19.5 0 C66.02 0, 112.55 0, 200.5 0 C213.5 0, 220 6.5, 220 19.5 C220 30.33, 220 41.17, 220 58.5 C220 71.5, 213.5 78, 200.5 78 C145.96 78, 91.42 78, 19.5 78 C6.5 78, 0 71.5, 0 58.5 C0 50.42, 0 42.33, 0 19.5 C0 6.5, 6.5 0, 19.5 0" stroke="none" stroke-width="0" fill="#f8fafc"></path><path d="M19.5 0 C60.05 0, 100.6 0, 200.5 0 M19.5 0 C83.02 0, 146.54 0, 200.5 0 M200.5 0 C213.5 0, 220 6.5, 220 19.5 M200.5 0 C213.5 0, 220 6.5, 220 19.5 M220 19.5 C220 34.51, 220 49.52, 220 58.5 M220 19.5 C220 34.1, 220 48.7, 220 58.5 M220 58.5 C220 71.5, 213.5 78, 200.5 78 M220 58.5 C220 71.5, 213.5 78, 200.5 78 M200.5 78 C164.17 78, 127.84 78, 19.5 78 M200.5 78 C129.67 78, 58.85 78, 19.5 78 M19.5 78 C6.5 78, 0 71.5, 0 58.5 M19.5 78 C6.5 78, 0 71.5, 0 58.5 M0 58.5 C0 44.09, 0 29.69, 0 19.5 M0 58.5 C0 42.9, 0 27.31, 0 19.5 M0 19.5 C0 6.5, 6.5 0, 19.5 0 M0 19.5 C0 6.5, 6.5 0, 19.5 0" stroke="#64748b" stroke-width="2" fill="none"></path></g><g transform="translate(738 484) rotate(0 104 8.4375)"><text x="104" y="0" font-family="Helvetica, Segoe UI Emoji" font-size="13.5px" fill="#334155" text-anchor="middle" style="white-space: pre;" direction="ltr" dominant-baseline="text-before-edge">Telemetry coverage</text></g><g transform="translate(738 506.875) rotate(0 104 7.1875)"><text x="104" y="0" font-family="Helvetica, Segoe UI Emoji" font-size="11.5px" fill="#334155" text-anchor="middle" style="white-space: pre;" direction="ltr" dominant-baseline="text-before-edge">not telemetry proof</text></g><g stroke-linecap="round"><g transform="translate(842 470) rotate(0 -204 -50)"><path d="M0 0 C-91.48 -22.42, -182.97 -44.85, -408 -100" stroke="#64748b" stroke-width="2.5" fill="none" stroke-dasharray="8 10"></path></g></g><mask></mask><g stroke-linecap="round" transform="translate(984 250) rotate(0 120 55)"><path d="M27.5 0 C97.09 0, 166.68 0, 212.5 0 C230.83 0, 240 9.17, 240 27.5 C240 43.87, 240 60.25, 240 82.5 C240 100.83, 230.83 110, 212.5 110 C159.78 110, 107.07 110, 27.5 110 C9.17 110, 0 100.83, 0 82.5 C0 69.92, 0 57.34, 0 27.5 C0 9.17, 9.17 0, 27.5 0" stroke="none" stroke-width="0" fill="#c7d2fe"></path><path d="M27.5 0 C68.99 0, 110.49 0, 212.5 0 M27.5 0 C98.28 0, 169.06 0, 212.5 0 M212.5 0 C230.83 0, 240 9.17, 240 27.5 M212.5 0 C230.83 0, 240 9.17, 240 27.5 M240 27.5 C240 47.57, 240 67.65, 240 82.5 M240 27.5 C240 48.81, 240 70.13, 240 82.5 M240 82.5 C240 100.83, 230.83 110, 212.5 110 M240 82.5 C240 100.83, 230.83 110, 212.5 110 M212.5 110 C161 110, 109.5 110, 27.5 110 M212.5 110 C161.21 110, 109.92 110, 27.5 110 M27.5 110 C9.17 110, 0 100.83, 0 82.5 M27.5 110 C9.17 110, 0 100.83, 0 82.5 M0 82.5 C0 69.81, 0 57.12, 0 27.5 M0 82.5 C0 67.14, 0 51.78, 0 27.5 M0 27.5 C0 9.17, 9.17 0, 27.5 0 M0 27.5 C0 9.17, 9.17 0, 27.5 0" stroke="#3730a3" stroke-width="2" fill="none"></path></g><g transform="translate(990 264) rotate(0 114 8.75)"><text x="114" y="0" font-family="Helvetica, Segoe UI Emoji" font-size="14px" fill="#1e1b4b" text-anchor="middle" style="white-space: pre;" direction="ltr" dominant-baseline="text-before-edge">Platform-security owner</text></g><g transform="translate(990 287.5) rotate(0 114 14.375)"><text x="114" y="0" font-family="Helvetica, Segoe UI Emoji" font-size="11.5px" fill="#1e1b4b" text-anchor="middle" style="white-space: pre;" direction="ltr" dominant-baseline="text-before-edge">accountable for the boundary;</text><text x="114" y="14.375" font-family="Helvetica, Segoe UI Emoji" font-size="11.5px" fill="#1e1b4b" text-anchor="middle" style="white-space: pre;" direction="ltr" dominant-baseline="text-before-edge">runtime assurance evidences it in S6</text></g><g stroke-linecap="round"><g transform="translate(554 305) rotate(0 215 0)"><path d="M0 0 C96.53 0, 193.05 0, 430 0" stroke="#3730a3" stroke-width="2.5" fill="none" stroke-dasharray="8 10"></path></g></g><mask></mask></svg>