<svg version="1.1" xmlns="http://www.w3.org/2000/svg" viewBox="0 0 1548 544" width="1548" height="544">
  <!-- svg-source:excalidraw -->
  
  <defs>
    <style class="style-fonts">
      @font-face {
        font-family: "Virgil";
        src: url("https://unpkg.com/@excalidraw/excalidraw@undefined/dist/excalidraw-assets/Virgil.woff2");
      }
      @font-face {
        font-family: "Cascadia";
        src: url("https://unpkg.com/@excalidraw/excalidraw@undefined/dist/excalidraw-assets/Cascadia.woff2");
      }
      @font-face {
        font-family: "Assistant";
        src: url("https://unpkg.com/@excalidraw/excalidraw@undefined/dist/excalidraw-assets/Assistant-Regular.woff2");
      }
    </style>
    
  </defs>
  <rect x="0" y="0" width="1548" height="544" fill="#ffffff"></rect><g transform="translate(24 24) rotate(0 750 16.25)"><text x="0" y="0" font-family="Helvetica, Segoe UI Emoji" font-size="26px" fill="#312e81" text-anchor="start" style="white-space: pre;" direction="ltr" dominant-baseline="text-before-edge">S9 · Control-plane reconciliation package</text></g><g transform="translate(24 60) rotate(0 750 8.75)"><text x="0" y="0" font-family="Helvetica, Segoe UI Emoji" font-size="14px" fill="#334155" text-anchor="start" style="white-space: pre;" direction="ltr" dominant-baseline="text-before-edge">S9 reconciles a bounded registry population using field-level sources of record and explicit join keys. Disagreements become owned findings and lifecycle backlog.</text></g><g stroke-linecap="round" transform="translate(24 150) rotate(0 115 50)"><path d="M25 0 C83.76 0, 142.53 0, 205 0 C221.67 0, 230 8.33, 230 25 C230 40.26, 230 55.53, 230 75 C230 91.67, 221.67 100, 205 100 C151.93 100, 98.86 100, 25 100 C8.33 100, 0 91.67, 0 75 C0 62.72, 0 50.44, 0 25 C0 8.33, 8.33 0, 25 0" stroke="none" stroke-width="0" fill="#e0e7ff"></path><path d="M25 0 C70.05 0, 115.1 0, 205 0 M25 0 C70.15 0, 115.3 0, 205 0 M205 0 C221.67 0, 230 8.33, 230 25 M205 0 C221.67 0, 230 8.33, 230 25 M230 25 C230 43.16, 230 61.33, 230 75 M230 25 C230 35.2, 230 45.39, 230 75 M230 75 C230 91.67, 221.67 100, 205 100 M230 75 C230 91.67, 221.67 100, 205 100 M205 100 C151.6 100, 98.21 100, 25 100 M205 100 C141.93 100, 78.86 100, 25 100 M25 100 C8.33 100, 0 91.67, 0 75 M25 100 C8.33 100, 0 91.67, 0 75 M0 75 C0 56.89, 0 38.78, 0 25 M0 75 C0 58.98, 0 42.96, 0 25 M0 25 C0 8.33, 8.33 0, 25 0 M0 25 C0 8.33, 8.33 0, 25 0" stroke="#4338ca" stroke-width="2" fill="none"></path></g><g transform="translate(30 164) rotate(0 109 18.75)"><text x="109" y="0" font-family="Helvetica, Segoe UI Emoji" font-size="15px" fill="#312e81" text-anchor="middle" style="white-space: pre;" direction="ltr" dominant-baseline="text-before-edge">Registry</text><text x="109" y="18.75" font-family="Helvetica, Segoe UI Emoji" font-size="15px" fill="#312e81" text-anchor="middle" style="white-space: pre;" direction="ltr" dominant-baseline="text-before-edge">population card</text></g><g transform="translate(30 207.5) rotate(0 109 15)"><text x="109" y="0" font-family="Helvetica, Segoe UI Emoji" font-size="12px" fill="#312e81" text-anchor="middle" style="white-space: pre;" direction="ltr" dominant-baseline="text-before-edge">scope · included records</text><text x="109" y="15" font-family="Helvetica, Segoe UI Emoji" font-size="12px" fill="#312e81" text-anchor="middle" style="white-space: pre;" direction="ltr" dominant-baseline="text-before-edge">steward · cadence</text></g><g stroke-linecap="round" transform="translate(314 140) rotate(0 130 60)"><path d="M30 0 C103.16 0, 176.33 0, 230 0 C250 0, 260 10, 260 30 C260 52.21, 260 74.43, 260 90 C260 110, 250 120, 230 120 C153.49 120, 76.98 120, 30 120 C10 120, 0 110, 0 90 C0 74.3, 0 58.59, 0 30 C0 10, 10 0, 30 0" stroke="none" stroke-width="0" fill="#cffafe"></path><path d="M30 0 C80.09 0, 130.19 0, 230 0 M30 0 C84.91 0, 139.83 0, 230 0 M230 0 C250 0, 260 10, 260 30 M230 0 C250 0, 260 10, 260 30 M260 30 C260 47.9, 260 65.81, 260 90 M260 30 C260 51.83, 260 73.66, 260 90 M260 90 C260 110, 250 120, 230 120 M260 90 C260 110, 250 120, 230 120 M230 120 C159.02 120, 88.04 120, 30 120 M230 120 C187.03 120, 144.06 120, 30 120 M30 120 C10 120, 0 110, 0 90 M30 120 C10 120, 0 110, 0 90 M0 90 C0 77.51, 0 65.01, 0 30 M0 90 C0 70.2, 0 50.41, 0 30 M0 30 C0 10, 10 0, 30 0 M0 30 C0 10, 10 0, 30 0" stroke="#0e7490" stroke-width="2" fill="none"></path></g><g transform="translate(320 154) rotate(0 124 18.75)"><text x="124" y="0" font-family="Helvetica, Segoe UI Emoji" font-size="15px" fill="#155e63" text-anchor="middle" style="white-space: pre;" direction="ltr" dominant-baseline="text-before-edge">Field-level</text><text x="124" y="18.75" font-family="Helvetica, Segoe UI Emoji" font-size="15px" fill="#155e63" text-anchor="middle" style="white-space: pre;" direction="ltr" dominant-baseline="text-before-edge">source-of-record map</text></g><g transform="translate(320 197.5) rotate(0 124 15)"><text x="124" y="0" font-family="Helvetica, Segoe UI Emoji" font-size="12px" fill="#155e63" text-anchor="middle" style="white-space: pre;" direction="ltr" dominant-baseline="text-before-edge">agent · identity · API/tool</text><text x="124" y="15" font-family="Helvetica, Segoe UI Emoji" font-size="12px" fill="#155e63" text-anchor="middle" style="white-space: pre;" direction="ltr" dominant-baseline="text-before-edge">model · data · telemetry · lifecycle</text></g><g stroke-linecap="round" transform="translate(644 140) rotate(0 120 60)"><path d="M30 0 C66.93 0, 103.86 0, 210 0 C230 0, 240 10, 240 30 C240 44.11, 240 58.22, 240 90 C240 110, 230 120, 210 120 C161.35 120, 112.7 120, 30 120 C10 120, 0 110, 0 90 C0 73.33, 0 56.66, 0 30 C0 10, 10 0, 30 0" stroke="none" stroke-width="0" fill="#cffafe"></path><path d="M30 0 C75.12 0, 120.24 0, 210 0 M30 0 C83.7 0, 137.39 0, 210 0 M210 0 C230 0, 240 10, 240 30 M210 0 C230 0, 240 10, 240 30 M240 30 C240 44.01, 240 58.02, 240 90 M240 30 C240 49.43, 240 68.85, 240 90 M240 90 C240 110, 230 120, 210 120 M240 90 C240 110, 230 120, 210 120 M210 120 C171.64 120, 133.27 120, 30 120 M210 120 C159.73 120, 109.45 120, 30 120 M30 120 C10 120, 0 110, 0 90 M30 120 C10 120, 0 110, 0 90 M0 90 C0 74.75, 0 59.5, 0 30 M0 90 C0 69.63, 0 49.27, 0 30 M0 30 C0 10, 10 0, 30 0 M0 30 C0 10, 10 0, 30 0" stroke="#0e7490" stroke-width="2" fill="none"></path></g><g transform="translate(650 154) rotate(0 114 9.375)"><text x="114" y="0" font-family="Helvetica, Segoe UI Emoji" font-size="15px" fill="#155e63" text-anchor="middle" style="white-space: pre;" direction="ltr" dominant-baseline="text-before-edge">Explicit join keys</text></g><g transform="translate(650 178.75) rotate(0 114 15)"><text x="114" y="0" font-family="Helvetica, Segoe UI Emoji" font-size="12px" fill="#155e63" text-anchor="middle" style="white-space: pre;" direction="ltr" dominant-baseline="text-before-edge">object ID · API ID · route ID</text><text x="114" y="15" font-family="Helvetica, Segoe UI Emoji" font-size="12px" fill="#155e63" text-anchor="middle" style="white-space: pre;" direction="ltr" dominant-baseline="text-before-edge">Foundry ref · correlation key</text></g><g stroke-linecap="round"><g transform="translate(254 200) rotate(0 30 0)"><path d="M0 0 C15.05 0, 30.1 0, 60 0 M0 0 C19.32 0, 38.65 0, 60 0" stroke="#4338ca" stroke-width="2" fill="none"></path></g><g transform="translate(254 200) rotate(0 30 0)"><path d="M31.81 10.26 C38.88 7.69, 45.95 5.11, 60 0 M31.81 10.26 C40.89 6.96, 49.97 3.65, 60 0" stroke="#4338ca" stroke-width="2" fill="none"></path></g><g transform="translate(254 200) rotate(0 30 0)"><path d="M31.81 -10.26 C38.88 -7.69, 45.95 -5.11, 60 0 M31.81 -10.26 C40.89 -6.96, 49.97 -3.65, 60 0" stroke="#4338ca" stroke-width="2" fill="none"></path></g></g><mask></mask><g stroke-linecap="round"><g transform="translate(574 200) rotate(0 35 0)"><path d="M0 0 C17.56 0, 35.13 0, 70 0 M0 0 C23.1 0, 46.2 0, 70 0" stroke="#0e7490" stroke-width="2" fill="none"></path></g><g transform="translate(574 200) rotate(0 35 0)"><path d="M41.81 10.26 C48.88 7.69, 55.96 5.11, 70 0 M41.81 10.26 C51.11 6.87, 60.41 3.49, 70 0" stroke="#0e7490" stroke-width="2" fill="none"></path></g><g transform="translate(574 200) rotate(0 35 0)"><path d="M41.81 -10.26 C48.88 -7.69, 55.96 -5.11, 70 0 M41.81 -10.26 C51.11 -6.87, 60.41 -3.49, 70 0" stroke="#0e7490" stroke-width="2" fill="none"></path></g></g><mask></mask><g stroke-linecap="round" transform="translate(954 110) rotate(0 145 90)"><path d="M32 0 C78.12 0, 124.24 0, 258 0 C279.33 0, 290 10.67, 290 32 C290 56.37, 290 80.74, 290 148 C290 169.33, 279.33 180, 258 180 C178.94 180, 99.89 180, 32 180 C10.67 180, 0 169.33, 0 148 C0 112.66, 0 77.32, 0 32 C0 10.67, 10.67 0, 32 0" stroke="none" stroke-width="0" fill="#fef3c7"></path><path d="M32 0 C88.72 0, 145.44 0, 258 0 M32 0 C108.36 0, 184.72 0, 258 0 M258 0 C279.33 0, 290 10.67, 290 32 M258 0 C279.33 0, 290 10.67, 290 32 M290 32 C290 62, 290 92.01, 290 148 M290 32 C290 77.28, 290 122.55, 290 148 M290 148 C290 169.33, 279.33 180, 258 180 M290 148 C290 169.33, 279.33 180, 258 180 M258 180 C187.89 180, 117.78 180, 32 180 M258 180 C170.6 180, 83.2 180, 32 180 M32 180 C10.67 180, 0 169.33, 0 148 M32 180 C10.67 180, 0 169.33, 0 148 M0 148 C0 109.62, 0 71.24, 0 32 M0 148 C0 114.52, 0 81.04, 0 32 M0 32 C0 10.67, 10.67 0, 32 0 M0 32 C0 10.67, 10.67 0, 32 0" stroke="#d97706" stroke-width="2" fill="none"></path></g><g transform="translate(960 124) rotate(0 139 18.75)"><text x="139" y="0" font-family="Helvetica, Segoe UI Emoji" font-size="15px" fill="#78350f" text-anchor="middle" style="white-space: pre;" direction="ltr" dominant-baseline="text-before-edge">Reconciliation</text><text x="139" y="18.75" font-family="Helvetica, Segoe UI Emoji" font-size="15px" fill="#78350f" text-anchor="middle" style="white-space: pre;" direction="ltr" dominant-baseline="text-before-edge">findings</text></g><g transform="translate(960 167.5) rotate(0 139 30)"><text x="139" y="0" font-family="Helvetica, Segoe UI Emoji" font-size="12px" fill="#78350f" text-anchor="middle" style="white-space: pre;" direction="ltr" dominant-baseline="text-before-edge">missing owner · stale version</text><text x="139" y="15" font-family="Helvetica, Segoe UI Emoji" font-size="12px" fill="#78350f" text-anchor="middle" style="white-space: pre;" direction="ltr" dominant-baseline="text-before-edge">orphan identity · route mismatch</text><text x="139" y="30" font-family="Helvetica, Segoe UI Emoji" font-size="12px" fill="#78350f" text-anchor="middle" style="white-space: pre;" direction="ltr" dominant-baseline="text-before-edge">telemetry gap · lifecycle conflict</text><text x="139" y="45" font-family="Helvetica, Segoe UI Emoji" font-size="12px" fill="#78350f" text-anchor="middle" style="white-space: pre;" direction="ltr" dominant-baseline="text-before-edge">exception aging</text></g><g stroke-linecap="round"><g transform="translate(884 200) rotate(0 35 0)"><path d="M0 0 C17.58 0, 35.16 0, 70 0 M0 0 C25.31 0, 50.63 0, 70 0" stroke="#d97706" stroke-width="2" fill="none"></path></g><g transform="translate(884 200) rotate(0 35 0)"><path d="M41.81 10.26 C48.89 7.68, 55.97 5.11, 70 0 M41.81 10.26 C52 6.55, 62.2 2.84, 70 0" stroke="#d97706" stroke-width="2" fill="none"></path></g><g transform="translate(884 200) rotate(0 35 0)"><path d="M41.81 -10.26 C48.89 -7.68, 55.97 -5.11, 70 0 M41.81 -10.26 C52 -6.55, 62.2 -2.84, 70 0" stroke="#d97706" stroke-width="2" fill="none"></path></g></g><mask></mask><g stroke-linecap="round" transform="translate(954 390) rotate(0 145 60)"><path d="M30 0 C104.34 0, 178.68 0, 260 0 C280 0, 290 10, 290 30 C290 43.8, 290 57.6, 290 90 C290 110, 280 120, 260 120 C183.31 120, 106.62 120, 30 120 C10 120, 0 110, 0 90 C0 70.43, 0 50.86, 0 30 C0 10, 10 0, 30 0" stroke="none" stroke-width="0" fill="#c7d2fe"></path><path d="M30 0 C87.78 0, 145.56 0, 260 0 M30 0 C114.99 0, 199.99 0, 260 0 M260 0 C280 0, 290 10, 290 30 M260 0 C280 0, 290 10, 290 30 M290 30 C290 44.33, 290 58.65, 290 90 M290 30 C290 42.21, 290 54.43, 290 90 M290 90 C290 110, 280 120, 260 120 M290 90 C290 110, 280 120, 260 120 M260 120 C170.79 120, 81.58 120, 30 120 M260 120 C197.29 120, 134.57 120, 30 120 M30 120 C10 120, 0 110, 0 90 M30 120 C10 120, 0 110, 0 90 M0 90 C0 66.47, 0 42.94, 0 30 M0 90 C0 67.92, 0 45.85, 0 30 M0 30 C0 10, 10 0, 30 0 M0 30 C0 10, 10 0, 30 0" stroke="#3730a3" stroke-width="2" fill="none"></path></g><g transform="translate(960 404) rotate(0 139 18.75)"><text x="139" y="0" font-family="Helvetica, Segoe UI Emoji" font-size="15px" fill="#1e1b4b" text-anchor="middle" style="white-space: pre;" direction="ltr" dominant-baseline="text-before-edge">Lifecycle +</text><text x="139" y="18.75" font-family="Helvetica, Segoe UI Emoji" font-size="15px" fill="#1e1b4b" text-anchor="middle" style="white-space: pre;" direction="ltr" dominant-baseline="text-before-edge">material-change decision</text></g><g transform="translate(960 447.5) rotate(0 139 15)"><text x="139" y="0" font-family="Helvetica, Segoe UI Emoji" font-size="12px" fill="#1e1b4b" text-anchor="middle" style="white-space: pre;" direction="ltr" dominant-baseline="text-before-edge">state · transition owner</text><text x="139" y="15" font-family="Helvetica, Segoe UI Emoji" font-size="12px" fill="#1e1b4b" text-anchor="middle" style="white-space: pre;" direction="ltr" dominant-baseline="text-before-edge">review ref · reopen trigger</text></g><g stroke-linecap="round"><g transform="translate(1099 290) rotate(0 0 50)"><path d="M0 0 C0 25.14, 0 50.28, 0 100 M0 0 C0 39.33, 0 78.65, 0 100" stroke="#3730a3" stroke-width="2" fill="none"></path></g><g transform="translate(1099 290) rotate(0 0 50)"><path d="M-10.26 71.81 C-7.68 78.9, -5.1 85.98, 0 100 M-10.26 71.81 C-6.23 82.9, -2.19 93.98, 0 100" stroke="#3730a3" stroke-width="2" fill="none"></path></g><g transform="translate(1099 290) rotate(0 0 50)"><path d="M10.26 71.81 C7.68 78.9, 5.1 85.98, 0 100 M10.26 71.81 C6.23 82.9, 2.19 93.98, 0 100" stroke="#3730a3" stroke-width="2" fill="none"></path></g></g><mask></mask><g stroke-linecap="round" transform="translate(1304 140) rotate(0 105 55)"><path d="M27.5 0 C65.06 0, 102.63 0, 182.5 0 C200.83 0, 210 9.17, 210 27.5 C210 41.25, 210 54.99, 210 82.5 C210 100.83, 200.83 110, 182.5 110 C133.35 110, 84.21 110, 27.5 110 C9.17 110, 0 100.83, 0 82.5 C0 63.38, 0 44.26, 0 27.5 C0 9.17, 9.17 0, 27.5 0" stroke="none" stroke-width="0" fill="#dcfce7"></path><path d="M27.5 0 C66.48 0, 105.46 0, 182.5 0 M27.5 0 C58.68 0, 89.87 0, 182.5 0 M182.5 0 C200.83 0, 210 9.17, 210 27.5 M182.5 0 C200.83 0, 210 9.17, 210 27.5 M210 27.5 C210 39.54, 210 51.58, 210 82.5 M210 27.5 C210 39.42, 210 51.35, 210 82.5 M210 82.5 C210 100.83, 200.83 110, 182.5 110 M210 82.5 C210 100.83, 200.83 110, 182.5 110 M182.5 110 C141.34 110, 100.19 110, 27.5 110 M182.5 110 C126.92 110, 71.33 110, 27.5 110 M27.5 110 C9.17 110, 0 100.83, 0 82.5 M27.5 110 C9.17 110, 0 100.83, 0 82.5 M0 82.5 C0 68.56, 0 54.62, 0 27.5 M0 82.5 C0 68.9, 0 55.3, 0 27.5 M0 27.5 C0 9.17, 9.17 0, 27.5 0 M0 27.5 C0 9.17, 9.17 0, 27.5 0" stroke="#16a34a" stroke-width="2" fill="none"></path></g><g transform="translate(1310 154) rotate(0 99 18.75)"><text x="99" y="0" font-family="Helvetica, Segoe UI Emoji" font-size="15px" fill="#14532d" text-anchor="middle" style="white-space: pre;" direction="ltr" dominant-baseline="text-before-edge">Close / close</text><text x="99" y="18.75" font-family="Helvetica, Segoe UI Emoji" font-size="15px" fill="#14532d" text-anchor="middle" style="white-space: pre;" direction="ltr" dominant-baseline="text-before-edge">with owned gaps</text></g><g transform="translate(1310 197.5) rotate(0 99 15)"><text x="99" y="0" font-family="Helvetica, Segoe UI Emoji" font-size="12px" fill="#14532d" text-anchor="middle" style="white-space: pre;" direction="ltr" dominant-baseline="text-before-edge">owners · dates</text><text x="99" y="15" font-family="Helvetica, Segoe UI Emoji" font-size="12px" fill="#14532d" text-anchor="middle" style="white-space: pre;" direction="ltr" dominant-baseline="text-before-edge">recurrence checks</text></g><g stroke-linecap="round" transform="translate(1304 400) rotate(0 105 55)"><path d="M27.5 0 C71.16 0, 114.82 0, 182.5 0 C200.83 0, 210 9.17, 210 27.5 C210 44.82, 210 62.14, 210 82.5 C210 100.83, 200.83 110, 182.5 110 C150.76 110, 119.01 110, 27.5 110 C9.17 110, 0 100.83, 0 82.5 C0 62.5, 0 42.49, 0 27.5 C0 9.17, 9.17 0, 27.5 0" stroke="none" stroke-width="0" fill="#fee2e2"></path><path d="M27.5 0 C66.51 0, 105.52 0, 182.5 0 M27.5 0 C62.36 0, 97.23 0, 182.5 0 M182.5 0 C200.83 0, 210 9.17, 210 27.5 M182.5 0 C200.83 0, 210 9.17, 210 27.5 M210 27.5 C210 46.97, 210 66.44, 210 82.5 M210 27.5 C210 48.22, 210 68.94, 210 82.5 M210 82.5 C210 100.83, 200.83 110, 182.5 110 M210 82.5 C210 100.83, 200.83 110, 182.5 110 M182.5 110 C132.32 110, 82.13 110, 27.5 110 M182.5 110 C147.93 110, 113.35 110, 27.5 110 M27.5 110 C9.17 110, 0 100.83, 0 82.5 M27.5 110 C9.17 110, 0 100.83, 0 82.5 M0 82.5 C0 66.03, 0 49.56, 0 27.5 M0 82.5 C0 68.38, 0 54.26, 0 27.5 M0 27.5 C0 9.17, 9.17 0, 27.5 0 M0 27.5 C0 9.17, 9.17 0, 27.5 0" stroke="#dc2626" stroke-width="2" fill="none"></path></g><g transform="translate(1310 414) rotate(0 99 18.75)"><text x="99" y="0" font-family="Helvetica, Segoe UI Emoji" font-size="15px" fill="#7f1d1d" text-anchor="middle" style="white-space: pre;" direction="ltr" dominant-baseline="text-before-edge">Defer / route</text><text x="99" y="18.75" font-family="Helvetica, Segoe UI Emoji" font-size="15px" fill="#7f1d1d" text-anchor="middle" style="white-space: pre;" direction="ltr" dominant-baseline="text-before-edge">/ block</text></g><g transform="translate(1310 457.5) rotate(0 99 15)"><text x="99" y="0" font-family="Helvetica, Segoe UI Emoji" font-size="12px" fill="#7f1d1d" text-anchor="middle" style="white-space: pre;" direction="ltr" dominant-baseline="text-before-edge">no steward · no join key</text><text x="99" y="15" font-family="Helvetica, Segoe UI Emoji" font-size="12px" fill="#7f1d1d" text-anchor="middle" style="white-space: pre;" direction="ltr" dominant-baseline="text-before-edge">unsupported coverage</text></g><g stroke-linecap="round"><g transform="translate(1244 432) rotate(0 30 -118.5)"><path d="M0 0 C10 -39.5, 50 -197.5, 60 -237 M0 0 C10 -39.5, 50 -197.5, 60 -237" stroke="#16a34a" stroke-width="2" fill="none"></path></g><g transform="translate(1244 432) rotate(0 30 -118.5)"><path d="M63.03 -207.15 C62.27 -214.67, 61.5 -222.19, 60 -237 M63.03 -207.15 C62.28 -214.58, 61.52 -222, 60 -237" stroke="#16a34a" stroke-width="2" fill="none"></path></g><g transform="translate(1244 432) rotate(0 30 -118.5)"><path d="M43.13 -212.19 C47.38 -218.44, 51.63 -224.69, 60 -237 M43.13 -212.19 C47.33 -218.36, 51.52 -224.53, 60 -237" stroke="#16a34a" stroke-width="2" fill="none"></path></g></g><mask></mask><g stroke-linecap="round"><g transform="translate(1244 468) rotate(0 30 -6.5)"><path d="M0 0 C10 -2.17, 50 -10.83, 60 -13 M0 0 C10 -2.17, 50 -10.83, 60 -13" stroke="#dc2626" stroke-width="2" fill="none"></path></g><g transform="translate(1244 468) rotate(0 30 -6.5)"><path d="M34.62 3 C41.01 -1.03, 47.41 -5.06, 60 -13 M34.62 3 C41.13 -1.11, 47.64 -5.21, 60 -13" stroke="#dc2626" stroke-width="2" fill="none"></path></g><g transform="translate(1244 468) rotate(0 30 -6.5)"><path d="M30.28 -17.06 C37.76 -16.04, 45.25 -15.01, 60 -13 M30.28 -17.06 C37.9 -16.02, 45.53 -14.98, 60 -13" stroke="#dc2626" stroke-width="2" fill="none"></path></g></g><mask></mask><g stroke-linecap="round" transform="translate(314 420) rotate(0 240 50)"><path d="M25 0 C145.66 0, 266.32 0, 455 0 C471.67 0, 480 8.33, 480 25 C480 39.49, 480 53.98, 480 75 C480 91.67, 471.67 100, 455 100 C332.74 100, 210.48 100, 25 100 C8.33 100, 0 91.67, 0 75 C0 55.47, 0 35.94, 0 25 C0 8.33, 8.33 0, 25 0" stroke="none" stroke-width="0" fill="#f8fafc"></path><path d="M25 0 C133.35 0, 241.7 0, 455 0 M25 0 C138.73 0, 252.47 0, 455 0 M455 0 C471.67 0, 480 8.33, 480 25 M455 0 C471.67 0, 480 8.33, 480 25 M480 25 C480 43.96, 480 62.92, 480 75 M480 25 C480 37.16, 480 49.32, 480 75 M480 75 C480 91.67, 471.67 100, 455 100 M480 75 C480 91.67, 471.67 100, 455 100 M455 100 C360.04 100, 265.07 100, 25 100 M455 100 C312.89 100, 170.79 100, 25 100 M25 100 C8.33 100, 0 91.67, 0 75 M25 100 C8.33 100, 0 91.67, 0 75 M0 75 C0 56.19, 0 37.39, 0 25 M0 75 C0 64.7, 0 54.41, 0 25 M0 25 C0 8.33, 8.33 0, 25 0 M0 25 C0 8.33, 8.33 0, 25 0" stroke="#64748b" stroke-width="2" fill="none"></path></g><g transform="translate(320 434) rotate(0 234 9.375)"><text x="234" y="0" font-family="Helvetica, Segoe UI Emoji" font-size="15px" fill="#334155" text-anchor="middle" style="white-space: pre;" direction="ltr" dominant-baseline="text-before-edge">Safe evidence boundary</text></g><g transform="translate(320 458.75) rotate(0 234 7.5)"><text x="234" y="0" font-family="Helvetica, Segoe UI Emoji" font-size="12px" fill="#334155" text-anchor="middle" style="white-space: pre;" direction="ltr" dominant-baseline="text-before-edge">repository stores field shapes and references only · customer exports, object IDs, telemetry, config, and closure evidence stay in customer systems</text></g><g stroke-linecap="round"><g transform="translate(444 260) rotate(0 55 80)"><path d="M0 0 C27.74 40.35, 55.48 80.69, 110 160" stroke="#64748b" stroke-width="2.5" fill="none" stroke-dasharray="8 10"></path></g></g><mask></mask><g stroke-linecap="round"><g transform="translate(764 260) rotate(0 -105 80)"><path d="M0 0 C-52.97 40.36, -105.94 80.71, -210 160" stroke="#64748b" stroke-width="2.5" fill="none" stroke-dasharray="8 10"></path></g></g><mask></mask></svg>