<svg version="1.1" xmlns="http://www.w3.org/2000/svg" viewBox="0 0 1548 530" width="1548" height="530">
  <!-- svg-source:excalidraw -->
  
  <defs>
    <style class="style-fonts">
      @font-face {
        font-family: "Virgil";
        src: url("https://unpkg.com/@excalidraw/excalidraw@undefined/dist/excalidraw-assets/Virgil.woff2");
      }
      @font-face {
        font-family: "Cascadia";
        src: url("https://unpkg.com/@excalidraw/excalidraw@undefined/dist/excalidraw-assets/Cascadia.woff2");
      }
      @font-face {
        font-family: "Assistant";
        src: url("https://unpkg.com/@excalidraw/excalidraw@undefined/dist/excalidraw-assets/Assistant-Regular.woff2");
      }
    </style>
    
  </defs>
  <rect x="0" y="0" width="1548" height="530" fill="#ffffff"></rect><g transform="translate(24 24) rotate(0 750 16.25)"><text x="0" y="0" font-family="Helvetica, Segoe UI Emoji" font-size="26px" fill="#312e81" text-anchor="start" style="white-space: pre;" direction="ltr" dominant-baseline="text-before-edge">S9 · Reconciliation keeps gaps visible</text></g><g transform="translate(24 60) rotate(0 750 8.75)"><text x="0" y="0" font-family="Helvetica, Segoe UI Emoji" font-size="14px" fill="#334155" text-anchor="start" style="white-space: pre;" direction="ltr" dominant-baseline="text-before-edge">S9 compares explicit identity identifiers across records (never inferring matches). Disagreements become findings for accountable owners and route to the customer steward or change process.</text></g><g stroke-linecap="round" transform="translate(24 150) rotate(0 125 30)"><path d="M15 0 C81.46 0, 147.91 0, 235 0 C245 0, 250 5, 250 15 C250 21.9, 250 28.79, 250 45 C250 55, 245 60, 235 60 C159.66 60, 84.32 60, 15 60 C5 60, 0 55, 0 45 C0 36.86, 0 28.71, 0 15 C0 5, 5 0, 15 0" stroke="none" stroke-width="0" fill="#cffafe"></path><path d="M15 0 C66.52 0, 118.04 0, 235 0 M15 0 C64.5 0, 114 0, 235 0 M235 0 C245 0, 250 5, 250 15 M235 0 C245 0, 250 5, 250 15 M250 15 C250 22.05, 250 29.1, 250 45 M250 15 C250 25.71, 250 36.42, 250 45 M250 45 C250 55, 245 60, 235 60 M250 45 C250 55, 245 60, 235 60 M235 60 C163.17 60, 91.34 60, 15 60 M235 60 C179.93 60, 124.85 60, 15 60 M15 60 C5 60, 0 55, 0 45 M15 60 C5 60, 0 55, 0 45 M0 45 C0 37.87, 0 30.74, 0 15 M0 45 C0 37.71, 0 30.41, 0 15 M0 15 C0 5, 5 0, 15 0 M0 15 C0 5, 5 0, 15 0" stroke="#0e7490" stroke-width="2" fill="none"></path></g><g transform="translate(24 171.875) rotate(0 125 8.125)"><text x="125" y="0" font-family="Helvetica, Segoe UI Emoji" font-size="13px" fill="#155e63" text-anchor="middle" style="white-space: pre;" direction="ltr" dominant-baseline="text-before-edge">Agent registry / Agent 365 view</text></g><g stroke-linecap="round" transform="translate(24 224) rotate(0 125 30)"><path d="M15 0 C72.56 0, 130.12 0, 235 0 C245 0, 250 5, 250 15 C250 25.2, 250 35.39, 250 45 C250 55, 245 60, 235 60 C161.46 60, 87.92 60, 15 60 C5 60, 0 55, 0 45 C0 36.53, 0 28.07, 0 15 C0 5, 5 0, 15 0" stroke="none" stroke-width="0" fill="#cffafe"></path><path d="M15 0 C66.55 0, 118.09 0, 235 0 M15 0 C67.98 0, 120.96 0, 235 0 M235 0 C245 0, 250 5, 250 15 M235 0 C245 0, 250 5, 250 15 M250 15 C250 24.75, 250 34.51, 250 45 M250 15 C250 22.91, 250 30.81, 250 45 M250 45 C250 55, 245 60, 235 60 M250 45 C250 55, 245 60, 235 60 M235 60 C154.63 60, 74.26 60, 15 60 M235 60 C170.47 60, 105.95 60, 15 60 M15 60 C5 60, 0 55, 0 45 M15 60 C5 60, 0 55, 0 45 M0 45 C0 36.95, 0 28.9, 0 15 M0 45 C0 33.52, 0 22.03, 0 15 M0 15 C0 5, 5 0, 15 0 M0 15 C0 5, 5 0, 15 0" stroke="#0e7490" stroke-width="2" fill="none"></path></g><g transform="translate(24 245.875) rotate(0 125 8.125)"><text x="125" y="0" font-family="Helvetica, Segoe UI Emoji" font-size="13px" fill="#155e63" text-anchor="middle" style="white-space: pre;" direction="ltr" dominant-baseline="text-before-edge">Entra Agent ID records</text></g><g stroke-linecap="round" transform="translate(24 298) rotate(0 125 30)"><path d="M15 0 C63.66 0, 112.33 0, 235 0 C245 0, 250 5, 250 15 C250 22.49, 250 29.99, 250 45 C250 55, 245 60, 235 60 C163.26 60, 91.52 60, 15 60 C5 60, 0 55, 0 45 C0 36.21, 0 27.42, 0 15 C0 5, 5 0, 15 0" stroke="none" stroke-width="0" fill="#cffafe"></path><path d="M15 0 C66.57 0, 118.15 0, 235 0 M15 0 C71.46 0, 127.93 0, 235 0 M235 0 C245 0, 250 5, 250 15 M235 0 C245 0, 250 5, 250 15 M250 15 C250 21.45, 250 27.91, 250 45 M250 15 C250 26.11, 250 37.21, 250 45 M250 45 C250 55, 245 60, 235 60 M250 45 C250 55, 245 60, 235 60 M235 60 C190.09 60, 145.17 60, 15 60 M235 60 C161.02 60, 87.04 60, 15 60 M15 60 C5 60, 0 55, 0 45 M15 60 C5 60, 0 55, 0 45 M0 45 C0 36.03, 0 27.06, 0 15 M0 45 C0 35.33, 0 25.65, 0 15 M0 15 C0 5, 5 0, 15 0 M0 15 C0 5, 5 0, 15 0" stroke="#0e7490" stroke-width="2" fill="none"></path></g><g transform="translate(24 319.875) rotate(0 125 8.125)"><text x="125" y="0" font-family="Helvetica, Segoe UI Emoji" font-size="13px" fill="#155e63" text-anchor="middle" style="white-space: pre;" direction="ltr" dominant-baseline="text-before-edge">API Center / gateway records</text></g><g stroke-linecap="round" transform="translate(24 372) rotate(0 125 30)"><path d="M15 0 C98.77 0, 182.54 0, 235 0 C245 0, 250 5, 250 15 C250 25.79, 250 36.59, 250 45 C250 55, 245 60, 235 60 C165.06 60, 95.12 60, 15 60 C5 60, 0 55, 0 45 C0 35.89, 0 26.78, 0 15 C0 5, 5 0, 15 0" stroke="none" stroke-width="0" fill="#cffafe"></path><path d="M15 0 C66.6 0, 118.2 0, 235 0 M15 0 C74.94 0, 134.89 0, 235 0 M235 0 C245 0, 250 5, 250 15 M235 0 C245 0, 250 5, 250 15 M250 15 C250 24.16, 250 33.31, 250 45 M250 15 C250 23.3, 250 31.61, 250 45 M250 45 C250 55, 245 60, 235 60 M250 45 C250 55, 245 60, 235 60 M235 60 C181.54 60, 128.09 60, 15 60 M235 60 C151.57 60, 68.13 60, 15 60 M15 60 C5 60, 0 55, 0 45 M15 60 C5 60, 0 55, 0 45 M0 45 C0 35.11, 0 25.22, 0 15 M0 45 C0 37.14, 0 29.27, 0 15 M0 15 C0 5, 5 0, 15 0 M0 15 C0 5, 5 0, 15 0" stroke="#0e7490" stroke-width="2" fill="none"></path></g><g transform="translate(24 393.875) rotate(0 125 8.125)"><text x="125" y="0" font-family="Helvetica, Segoe UI Emoji" font-size="13px" fill="#155e63" text-anchor="middle" style="white-space: pre;" direction="ltr" dominant-baseline="text-before-edge">Platform telemetry</text></g><g stroke-linecap="round" transform="translate(24 446) rotate(0 125 30)"><path d="M15 0 C89.87 0, 164.75 0, 235 0 C245 0, 250 5, 250 15 C250 23.09, 250 31.18, 250 45 C250 55, 245 60, 235 60 C166.86 60, 98.73 60, 15 60 C5 60, 0 55, 0 45 C0 35.57, 0 26.14, 0 15 C0 5, 5 0, 15 0" stroke="none" stroke-width="0" fill="#cffafe"></path><path d="M15 0 C66.63 0, 118.26 0, 235 0 M15 0 C78.43 0, 141.85 0, 235 0 M235 0 C245 0, 250 5, 250 15 M235 0 C245 0, 250 5, 250 15 M250 15 C250 26.86, 250 38.72, 250 45 M250 15 C250 26.5, 250 38.01, 250 45 M250 45 C250 55, 245 60, 235 60 M250 45 C250 55, 245 60, 235 60 M235 60 C173 60, 111 60, 15 60 M235 60 C186.11 60, 137.23 60, 15 60 M15 60 C5 60, 0 55, 0 45 M15 60 C5 60, 0 55, 0 45 M0 45 C0 34.19, 0 23.38, 0 15 M0 45 C0 38.95, 0 32.89, 0 15 M0 15 C0 5, 5 0, 15 0 M0 15 C0 5, 5 0, 15 0" stroke="#0e7490" stroke-width="2" fill="none"></path></g><g transform="translate(24 467.875) rotate(0 125 8.125)"><text x="125" y="0" font-family="Helvetica, Segoe UI Emoji" font-size="13px" fill="#155e63" text-anchor="middle" style="white-space: pre;" direction="ltr" dominant-baseline="text-before-edge">Approved lifecycle / change-review</text></g><g stroke-linecap="round" transform="translate(334 250) rotate(0 105 75)"><path d="M32 0 C75.79 0, 119.57 0, 178 0 C199.33 0, 210 10.67, 210 32 C210 64.65, 210 97.31, 210 118 C210 139.33, 199.33 150, 178 150 C133.98 150, 89.95 150, 32 150 C10.67 150, 0 139.33, 0 118 C0 90.04, 0 62.07, 0 32 C0 10.67, 10.67 0, 32 0" stroke="none" stroke-width="0" fill="#e0e7ff"></path><path d="M32 0 C66.28 0, 100.56 0, 178 0 M32 0 C76.4 0, 120.81 0, 178 0 M178 0 C199.33 0, 210 10.67, 210 32 M178 0 C199.33 0, 210 10.67, 210 32 M210 32 C210 56.54, 210 81.08, 210 118 M210 32 C210 56.94, 210 81.89, 210 118 M210 118 C210 139.33, 199.33 150, 178 150 M210 118 C210 139.33, 199.33 150, 178 150 M178 150 C131.19 150, 84.37 150, 32 150 M178 150 C139.28 150, 100.57 150, 32 150 M32 150 C10.67 150, 0 139.33, 0 118 M32 150 C10.67 150, 0 139.33, 0 118 M0 118 C0 84.38, 0 50.76, 0 32 M0 118 C0 88.64, 0 59.27, 0 32 M0 32 C0 10.67, 10.67 0, 32 0 M0 32 C0 10.67, 10.67 0, 32 0" stroke="#4338ca" stroke-width="2" fill="none"></path></g><g transform="translate(340 264) rotate(0 99 9.375)"><text x="99" y="0" font-family="Helvetica, Segoe UI Emoji" font-size="15px" fill="#312e81" text-anchor="middle" style="white-space: pre;" direction="ltr" dominant-baseline="text-before-edge">Reconciliation</text></g><g transform="translate(340 288.75) rotate(0 99 22.5)"><text x="99" y="0" font-family="Helvetica, Segoe UI Emoji" font-size="12px" fill="#312e81" text-anchor="middle" style="white-space: pre;" direction="ltr" dominant-baseline="text-before-edge">compare explicit</text><text x="99" y="15" font-family="Helvetica, Segoe UI Emoji" font-size="12px" fill="#312e81" text-anchor="middle" style="white-space: pre;" direction="ltr" dominant-baseline="text-before-edge">identity identifiers</text><text x="99" y="30" font-family="Helvetica, Segoe UI Emoji" font-size="12px" fill="#312e81" text-anchor="middle" style="white-space: pre;" direction="ltr" dominant-baseline="text-before-edge">(no name inference)</text></g><g stroke-linecap="round"><g transform="translate(274 180) rotate(0 30 72.5)"><path d="M0 0 C14.1 34.07, 28.2 68.15, 60 145 M0 0 C19.67 47.54, 39.34 95.08, 60 145" stroke="#0e7490" stroke-width="2" fill="none"></path></g><g transform="translate(274 180) rotate(0 30 72.5)"><path d="M39.74 122.87 C44.5 128.07, 49.26 133.27, 60 145 M39.74 122.87 C46.38 130.13, 53.03 137.38, 60 145" stroke="#0e7490" stroke-width="2" fill="none"></path></g><g transform="translate(274 180) rotate(0 30 72.5)"><path d="M58.7 115.03 C59.01 122.07, 59.31 129.11, 60 145 M58.7 115.03 C59.13 124.85, 59.55 134.68, 60 145" stroke="#0e7490" stroke-width="2" fill="none"></path></g></g><mask></mask><g stroke-linecap="round"><g transform="translate(274 254) rotate(0 30 35.5)"><path d="M0 0 C14.1 16.69, 28.21 33.38, 60 71 M0 0 C20.15 23.84, 40.29 47.68, 60 71" stroke="#0e7490" stroke-width="2" fill="none"></path></g><g transform="translate(274 254) rotate(0 30 35.5)"><path d="M33.97 56.09 C40.09 59.6, 46.21 63.1, 60 71 M33.97 56.09 C42.71 61.1, 51.45 66.1, 60 71" stroke="#0e7490" stroke-width="2" fill="none"></path></g><g transform="translate(274 254) rotate(0 30 35.5)"><path d="M49.64 42.85 C52.08 49.46, 54.51 56.08, 60 71 M49.64 42.85 C53.12 52.3, 56.6 61.75, 60 71" stroke="#0e7490" stroke-width="2" fill="none"></path></g></g><mask></mask><g stroke-linecap="round"><g transform="translate(274 328) rotate(0 30 -1.5)"><path d="M0 0 C14.11 -0.71, 28.21 -1.41, 60 -3 M0 0 C20.62 -1.03, 41.24 -2.06, 60 -3" stroke="#0e7490" stroke-width="2" fill="none"></path></g><g transform="translate(274 328) rotate(0 30 -1.5)"><path d="M32.36 8.66 C38.86 5.92, 45.36 3.17, 60 -3 M32.36 8.66 C41.86 4.65, 51.36 0.64, 60 -3" stroke="#0e7490" stroke-width="2" fill="none"></path></g><g transform="translate(274 328) rotate(0 30 -1.5)"><path d="M31.33 -11.84 C38.07 -9.76, 44.81 -7.68, 60 -3 M31.33 -11.84 C41.19 -8.8, 51.04 -5.76, 60 -3" stroke="#0e7490" stroke-width="2" fill="none"></path></g></g><mask></mask><g stroke-linecap="round"><g transform="translate(274 402) rotate(0 30 -38.5)"><path d="M0 0 C14.11 -18.11, 28.22 -36.22, 60 -77 M0 0 C21.1 -27.07, 42.19 -54.15, 60 -77" stroke="#0e7490" stroke-width="2" fill="none"></path></g><g transform="translate(274 402) rotate(0 30 -38.5)"><path d="M50.77 -48.46 C52.94 -55.17, 55.11 -61.88, 60 -77 M50.77 -48.46 C54.01 -58.49, 57.26 -68.53, 60 -77" stroke="#0e7490" stroke-width="2" fill="none"></path></g><g transform="translate(274 402) rotate(0 30 -38.5)"><path d="M34.58 -61.07 C40.56 -64.82, 46.54 -68.56, 60 -77 M34.58 -61.07 C43.52 -66.67, 52.46 -72.27, 60 -77" stroke="#0e7490" stroke-width="2" fill="none"></path></g></g><mask></mask><g stroke-linecap="round"><g transform="translate(274 476) rotate(0 30 -75.5)"><path d="M0 0 C14.11 -35.52, 28.23 -71.04, 60 -151 M0 0 C21.57 -54.29, 43.14 -108.58, 60 -151" stroke="#0e7490" stroke-width="2" fill="none"></path></g><g transform="translate(274 476) rotate(0 30 -75.5)"><path d="M59.13 -121.01 C59.33 -128.07, 59.54 -135.12, 60 -151 M59.13 -121.01 C59.44 -131.79, 59.75 -142.57, 60 -151" stroke="#0e7490" stroke-width="2" fill="none"></path></g><g transform="translate(274 476) rotate(0 30 -75.5)"><path d="M40.05 -128.59 C44.75 -133.86, 49.44 -139.13, 60 -151 M40.05 -128.59 C47.23 -136.65, 54.4 -144.7, 60 -151" stroke="#0e7490" stroke-width="2" fill="none"></path></g></g><mask></mask><g stroke-linecap="round" transform="translate(604 210) rotate(0 150 115)"><path d="M32 0 C111.81 0, 191.61 0, 268 0 C289.33 0, 300 10.67, 300 32 C300 68.45, 300 104.89, 300 198 C300 219.33, 289.33 230, 268 230 C204.57 230, 141.13 230, 32 230 C10.67 230, 0 219.33, 0 198 C0 136.9, 0 75.79, 0 32 C0 10.67, 10.67 0, 32 0" stroke="none" stroke-width="0" fill="#fef3c7"></path><path d="M32 0 C87.53 0, 143.06 0, 268 0 M32 0 C118.72 0, 205.43 0, 268 0 M268 0 C289.33 0, 300 10.67, 300 32 M268 0 C289.33 0, 300 10.67, 300 32 M300 32 C300 72.77, 300 113.54, 300 198 M300 32 C300 84.54, 300 137.08, 300 198 M300 198 C300 219.33, 289.33 230, 268 230 M300 198 C300 219.33, 289.33 230, 268 230 M268 230 C202.87 230, 137.75 230, 32 230 M268 230 C212.05 230, 156.11 230, 32 230 M32 230 C10.67 230, 0 219.33, 0 198 M32 230 C10.67 230, 0 219.33, 0 198 M0 198 C0 145.95, 0 93.89, 0 32 M0 198 C0 148.18, 0 98.37, 0 32 M0 32 C0 10.67, 10.67 0, 32 0 M0 32 C0 10.67, 10.67 0, 32 0" stroke="#d97706" stroke-width="2" fill="none"></path></g><g transform="translate(610 224) rotate(0 144 9.375)"><text x="144" y="0" font-family="Helvetica, Segoe UI Emoji" font-size="15px" fill="#78350f" text-anchor="middle" style="white-space: pre;" direction="ltr" dominant-baseline="text-before-edge">Findings</text></g><g transform="translate(610 248.75) rotate(0 144 45)"><text x="144" y="0" font-family="Helvetica, Segoe UI Emoji" font-size="12px" fill="#78350f" text-anchor="middle" style="white-space: pre;" direction="ltr" dominant-baseline="text-before-edge">unmatched identities</text><text x="144" y="15" font-family="Helvetica, Segoe UI Emoji" font-size="12px" fill="#78350f" text-anchor="middle" style="white-space: pre;" direction="ltr" dominant-baseline="text-before-edge">catalog-only entries</text><text x="144" y="30" font-family="Helvetica, Segoe UI Emoji" font-size="12px" fill="#78350f" text-anchor="middle" style="white-space: pre;" direction="ltr" dominant-baseline="text-before-edge">missing owners</text><text x="144" y="45" font-family="Helvetica, Segoe UI Emoji" font-size="12px" fill="#78350f" text-anchor="middle" style="white-space: pre;" direction="ltr" dominant-baseline="text-before-edge">invalid lifecycle states</text><text x="144" y="60" font-family="Helvetica, Segoe UI Emoji" font-size="12px" fill="#78350f" text-anchor="middle" style="white-space: pre;" direction="ltr" dominant-baseline="text-before-edge">unreviewed material changes</text><text x="144" y="75" font-family="Helvetica, Segoe UI Emoji" font-size="12px" fill="#78350f" text-anchor="middle" style="white-space: pre;" direction="ltr" dominant-baseline="text-before-edge">incomplete closure records</text></g><g stroke-linecap="round"><g transform="translate(544 325) rotate(0 30 0)"><path d="M0 0 C14.13 0, 28.26 0, 60 0 M0 0 C23.47 0, 46.94 0, 60 0" stroke="#4338ca" stroke-width="2" fill="none"></path></g><g transform="translate(544 325) rotate(0 30 0)"><path d="M31.81 10.26 C38.45 7.84, 45.09 5.43, 60 0 M31.81 10.26 C42.84 6.25, 53.86 2.23, 60 0" stroke="#4338ca" stroke-width="2" fill="none"></path></g><g transform="translate(544 325) rotate(0 30 0)"><path d="M31.81 -10.26 C38.45 -7.84, 45.09 -5.43, 60 0 M31.81 -10.26 C42.84 -6.25, 53.86 -2.23, 60 0" stroke="#4338ca" stroke-width="2" fill="none"></path></g></g><mask></mask><g stroke-linecap="round" transform="translate(964 250) rotate(0 105 55)"><path d="M27.5 0 C67.38 0, 107.26 0, 182.5 0 C200.83 0, 210 9.17, 210 27.5 C210 40.67, 210 53.84, 210 82.5 C210 100.83, 200.83 110, 182.5 110 C143.37 110, 104.25 110, 27.5 110 C9.17 110, 0 100.83, 0 82.5 C0 61.07, 0 39.65, 0 27.5 C0 9.17, 9.17 0, 27.5 0" stroke="none" stroke-width="0" fill="#c7d2fe"></path><path d="M27.5 0 C64.01 0, 100.52 0, 182.5 0 M27.5 0 C89.36 0, 151.22 0, 182.5 0 M182.5 0 C200.83 0, 210 9.17, 210 27.5 M182.5 0 C200.83 0, 210 9.17, 210 27.5 M210 27.5 C210 39.92, 210 52.33, 210 82.5 M210 27.5 C210 45.64, 210 63.77, 210 82.5 M210 82.5 C210 100.83, 200.83 110, 182.5 110 M210 82.5 C210 100.83, 200.83 110, 182.5 110 M182.5 110 C127.69 110, 72.88 110, 27.5 110 M182.5 110 C132.44 110, 82.37 110, 27.5 110 M27.5 110 C9.17 110, 0 100.83, 0 82.5 M27.5 110 C9.17 110, 0 100.83, 0 82.5 M0 82.5 C0 61.88, 0 41.26, 0 27.5 M0 82.5 C0 61.63, 0 40.76, 0 27.5 M0 27.5 C0 9.17, 9.17 0, 27.5 0 M0 27.5 C0 9.17, 9.17 0, 27.5 0" stroke="#3730a3" stroke-width="2" fill="none"></path></g><g transform="translate(970 264) rotate(0 99 17.5)"><text x="99" y="0" font-family="Helvetica, Segoe UI Emoji" font-size="14px" fill="#1e1b4b" text-anchor="middle" style="white-space: pre;" direction="ltr" dominant-baseline="text-before-edge">Customer steward /</text><text x="99" y="17.5" font-family="Helvetica, Segoe UI Emoji" font-size="14px" fill="#1e1b4b" text-anchor="middle" style="white-space: pre;" direction="ltr" dominant-baseline="text-before-edge">change process</text></g><g transform="translate(970 305) rotate(0 99 7.5)"><text x="99" y="0" font-family="Helvetica, Segoe UI Emoji" font-size="12px" fill="#1e1b4b" text-anchor="middle" style="white-space: pre;" direction="ltr" dominant-baseline="text-before-edge">owns the fix</text></g><g stroke-linecap="round" transform="translate(1234 250) rotate(0 100 55)"><path d="M27.5 0 C70.51 0, 113.53 0, 172.5 0 C190.83 0, 200 9.17, 200 27.5 C200 44.24, 200 60.99, 200 82.5 C200 100.83, 190.83 110, 172.5 110 C123.18 110, 73.86 110, 27.5 110 C9.17 110, 0 100.83, 0 82.5 C0 71.19, 0 59.88, 0 27.5 C0 9.17, 9.17 0, 27.5 0" stroke="none" stroke-width="0" fill="#dcfce7"></path><path d="M27.5 0 C61.68 0, 95.87 0, 172.5 0 M27.5 0 C59.81 0, 92.12 0, 172.5 0 M172.5 0 C190.83 0, 200 9.17, 200 27.5 M172.5 0 C190.83 0, 200 9.17, 200 27.5 M200 27.5 C200 47.35, 200 67.19, 200 82.5 M200 27.5 C200 43.43, 200 59.36, 200 82.5 M200 82.5 C200 100.83, 190.83 110, 172.5 110 M200 82.5 C200 100.83, 190.83 110, 172.5 110 M172.5 110 C141.78 110, 111.06 110, 27.5 110 M172.5 110 C116.32 110, 60.14 110, 27.5 110 M27.5 110 C9.17 110, 0 100.83, 0 82.5 M27.5 110 C9.17 110, 0 100.83, 0 82.5 M0 82.5 C0 70.35, 0 58.2, 0 27.5 M0 82.5 C0 61.11, 0 39.72, 0 27.5 M0 27.5 C0 9.17, 9.17 0, 27.5 0 M0 27.5 C0 9.17, 9.17 0, 27.5 0" stroke="#16a34a" stroke-width="2" fill="none"></path></g><g transform="translate(1234 295.625) rotate(0 100 9.375)"><text x="100" y="0" font-family="Helvetica, Segoe UI Emoji" font-size="15px" fill="#14532d" text-anchor="middle" style="white-space: pre;" direction="ltr" dominant-baseline="text-before-edge">Lifecycle backlog</text></g><g stroke-linecap="round"><g transform="translate(904 325) rotate(0 30 -10)"><path d="M0 0 C14.15 -4.72, 28.3 -9.43, 60 -20 M0 0 C14.32 -4.77, 28.64 -9.55, 60 -20" stroke="#d97706" stroke-width="2" fill="none"></path></g><g transform="translate(904 325) rotate(0 30 -10)"><path d="M36.5 -1.35 C42.04 -5.75, 47.59 -10.15, 60 -20 M36.5 -1.35 C42.11 -5.8, 47.72 -10.25, 60 -20" stroke="#d97706" stroke-width="2" fill="none"></path></g><g transform="translate(904 325) rotate(0 30 -10)"><path d="M30.01 -20.82 C37.08 -20.63, 44.16 -20.43, 60 -20 M30.01 -20.82 C37.17 -20.62, 44.33 -20.43, 60 -20" stroke="#d97706" stroke-width="2" fill="none"></path></g></g><mask></mask><g stroke-linecap="round"><g transform="translate(1174 305) rotate(0 30 0)"><path d="M0 0 C14.16 0, 28.31 0, 60 0 M0 0 C14.79 0, 29.59 0, 60 0" stroke="#3730a3" stroke-width="2" fill="none"></path></g><g transform="translate(1174 305) rotate(0 30 0)"><path d="M31.81 10.26 C38.46 7.84, 45.11 5.42, 60 0 M31.81 10.26 C38.76 7.73, 45.71 5.2, 60 0" stroke="#3730a3" stroke-width="2" fill="none"></path></g><g transform="translate(1174 305) rotate(0 30 0)"><path d="M31.81 -10.26 C38.46 -7.84, 45.11 -5.42, 60 0 M31.81 -10.26 C38.76 -7.73, 45.71 -5.2, 60 0" stroke="#3730a3" stroke-width="2" fill="none"></path></g></g><mask></mask></svg>