<svg version="1.1" xmlns="http://www.w3.org/2000/svg" viewBox="0 0 1548 586" width="1548" height="586">
  <!-- svg-source:excalidraw -->
  
  <defs>
    <style class="style-fonts">
      @font-face {
        font-family: "Virgil";
        src: url("https://unpkg.com/@excalidraw/excalidraw@undefined/dist/excalidraw-assets/Virgil.woff2");
      }
      @font-face {
        font-family: "Cascadia";
        src: url("https://unpkg.com/@excalidraw/excalidraw@undefined/dist/excalidraw-assets/Cascadia.woff2");
      }
      @font-face {
        font-family: "Assistant";
        src: url("https://unpkg.com/@excalidraw/excalidraw@undefined/dist/excalidraw-assets/Assistant-Regular.woff2");
      }
    </style>
    
  </defs>
  <rect x="0" y="0" width="1548" height="586" fill="#ffffff"></rect><g transform="translate(24 24) rotate(0 750 15)"><text x="0" y="0" font-family="Helvetica, Segoe UI Emoji" font-size="24px" fill="#4c1d95" text-anchor="start" style="white-space: pre;" direction="ltr" dominant-baseline="text-before-edge">S4 · Classification is about authority — the highest-impact action sets the bar</text></g><g transform="translate(24 58) rotate(0 750 8.75)"><text x="0" y="0" font-family="Helvetica, Segoe UI Emoji" font-size="14px" fill="#334155" text-anchor="start" style="white-space: pre;" direction="ltr" dominant-baseline="text-before-edge">Classify a candidate by what it is meant to do, not its label. Each archetype raises the minimum admission focus. Unclear authority = unclassified → do not admit.</text></g><g stroke-linecap="round" transform="translate(24 250) rotate(0 105 55)"><path d="M27.5 0 C60.23 0, 92.96 0, 182.5 0 C200.83 0, 210 9.17, 210 27.5 C210 41.93, 210 56.35, 210 82.5 C210 100.83, 200.83 110, 182.5 110 C137.42 110, 92.34 110, 27.5 110 C9.17 110, 0 100.83, 0 82.5 C0 63.13, 0 43.76, 0 27.5 C0 9.17, 9.17 0, 27.5 0" stroke="none" stroke-width="0" fill="#c7d2fe"></path><path d="M27.5 0 C62.49 0, 97.48 0, 182.5 0 M27.5 0 C84.01 0, 140.52 0, 182.5 0 M182.5 0 C200.83 0, 210 9.17, 210 27.5 M182.5 0 C200.83 0, 210 9.17, 210 27.5 M210 27.5 C210 38.54, 210 49.58, 210 82.5 M210 27.5 C210 39.25, 210 51, 210 82.5 M210 82.5 C210 100.83, 200.83 110, 182.5 110 M210 82.5 C210 100.83, 200.83 110, 182.5 110 M182.5 110 C132.14 110, 81.77 110, 27.5 110 M182.5 110 C124.93 110, 67.37 110, 27.5 110 M27.5 110 C9.17 110, 0 100.83, 0 82.5 M27.5 110 C9.17 110, 0 100.83, 0 82.5 M0 82.5 C0 61.42, 0 40.33, 0 27.5 M0 82.5 C0 66.8, 0 51.1, 0 27.5 M0 27.5 C0 9.17, 9.17 0, 27.5 0 M0 27.5 C0 9.17, 9.17 0, 27.5 0" stroke="#3730a3" stroke-width="2" fill="none"></path></g><g transform="translate(30 264) rotate(0 99 10)"><text x="99" y="0" font-family="Helvetica, Segoe UI Emoji" font-size="16px" fill="#1e1b4b" text-anchor="middle" style="white-space: pre;" direction="ltr" dominant-baseline="text-before-edge">Agent candidate</text></g><g transform="translate(30 290) rotate(0 99 15.625)"><text x="99" y="0" font-family="Helvetica, Segoe UI Emoji" font-size="12.5px" fill="#1e1b4b" text-anchor="middle" style="white-space: pre;" direction="ltr" dominant-baseline="text-before-edge">classify by intended</text><text x="99" y="15.625" font-family="Helvetica, Segoe UI Emoji" font-size="12.5px" fill="#1e1b4b" text-anchor="middle" style="white-space: pre;" direction="ltr" dominant-baseline="text-before-edge">authority</text></g><g stroke-linecap="round" transform="translate(324 150) rotate(0 170 44)"><path d="M22 0 C96.16 0, 170.31 0, 318 0 C332.67 0, 340 7.33, 340 22 C340 36.4, 340 50.8, 340 66 C340 80.67, 332.67 88, 318 88 C205.95 88, 93.9 88, 22 88 C7.33 88, 0 80.67, 0 66 C0 49.8, 0 33.59, 0 22 C0 7.33, 7.33 0, 22 0" stroke="none" stroke-width="0" fill="#ede9fe"></path><path d="M22 0 C88.87 0, 155.75 0, 318 0 M22 0 C136.95 0, 251.9 0, 318 0 M318 0 C332.67 0, 340 7.33, 340 22 M318 0 C332.67 0, 340 7.33, 340 22 M340 22 C340 36.78, 340 51.55, 340 66 M340 22 C340 38.44, 340 54.87, 340 66 M340 66 C340 80.67, 332.67 88, 318 88 M340 66 C340 80.67, 332.67 88, 318 88 M318 88 C204.58 88, 91.16 88, 22 88 M318 88 C248.19 88, 178.38 88, 22 88 M22 88 C7.33 88, 0 80.67, 0 66 M22 88 C7.33 88, 0 80.67, 0 66 M0 66 C0 55.91, 0 45.82, 0 22 M0 66 C0 53.02, 0 40.05, 0 22 M0 22 C0 7.33, 7.33 0, 22 0 M0 22 C0 7.33, 7.33 0, 22 0" stroke="#7c3aed" stroke-width="2" fill="none"></path></g><g transform="translate(330 164) rotate(0 164 9.375)"><text x="164" y="0" font-family="Helvetica, Segoe UI Emoji" font-size="15px" fill="#4c1d95" text-anchor="middle" style="white-space: pre;" direction="ltr" dominant-baseline="text-before-edge">Advisory assistant</text></g><g transform="translate(330 188.75) rotate(0 164 14.375)"><text x="164" y="0" font-family="Helvetica, Segoe UI Emoji" font-size="11.5px" fill="#4c1d95" text-anchor="middle" style="white-space: pre;" direction="ltr" dominant-baseline="text-before-edge">purpose · audience · limits</text><text x="164" y="14.375" font-family="Helvetica, Segoe UI Emoji" font-size="11.5px" fill="#4c1d95" text-anchor="middle" style="white-space: pre;" direction="ltr" dominant-baseline="text-before-edge">accountable owner</text></g><g stroke-linecap="round"><g transform="translate(234 305) rotate(0 45 -55.5)"><path d="M0 0 C20.35 -25.1, 40.7 -50.2, 90 -111 M0 0 C19.09 -23.54, 38.17 -47.08, 90 -111" stroke="#7c3aed" stroke-width="2" fill="none"></path></g><g transform="translate(234 305) rotate(0 45 -55.5)"><path d="M80.22 -82.64 C82.43 -89.05, 84.64 -95.47, 90 -111 M80.22 -82.64 C82.29 -88.65, 84.37 -94.67, 90 -111" stroke="#7c3aed" stroke-width="2" fill="none"></path></g><g transform="translate(234 305) rotate(0 45 -55.5)"><path d="M64.28 -95.56 C70.09 -99.05, 75.91 -102.55, 90 -111 M64.28 -95.56 C69.73 -98.84, 75.19 -102.11, 90 -111" stroke="#7c3aed" stroke-width="2" fill="none"></path></g></g><mask></mask><g stroke-linecap="round" transform="translate(324 258) rotate(0 170 44)"><path d="M22 0 C131.42 0, 240.84 0, 318 0 C332.67 0, 340 7.33, 340 22 C340 37.28, 340 52.55, 340 66 C340 80.67, 332.67 88, 318 88 C210.8 88, 103.59 88, 22 88 C7.33 88, 0 80.67, 0 66 C0 48.85, 0 31.7, 0 22 C0 7.33, 7.33 0, 22 0" stroke="none" stroke-width="0" fill="#ede9fe"></path><path d="M22 0 C88.95 0, 155.9 0, 318 0 M22 0 C87.12 0, 152.23 0, 318 0 M318 0 C332.67 0, 340 7.33, 340 22 M318 0 C332.67 0, 340 7.33, 340 22 M340 22 C340 35.9, 340 49.8, 340 66 M340 22 C340 39.02, 340 56.04, 340 66 M340 66 C340 80.67, 332.67 88, 318 88 M340 66 C340 80.67, 332.67 88, 318 88 M318 88 C240.79 88, 163.59 88, 22 88 M318 88 C222.75 88, 127.5 88, 22 88 M22 88 C7.33 88, 0 80.67, 0 66 M22 88 C7.33 88, 0 80.67, 0 66 M0 66 C0 53.21, 0 40.42, 0 22 M0 66 C0 49.53, 0 33.07, 0 22 M0 22 C0 7.33, 7.33 0, 22 0 M0 22 C0 7.33, 7.33 0, 22 0" stroke="#7c3aed" stroke-width="2" fill="none"></path></g><g transform="translate(330 272) rotate(0 164 9.375)"><text x="164" y="0" font-family="Helvetica, Segoe UI Emoji" font-size="15px" fill="#4c1d95" text-anchor="middle" style="white-space: pre;" direction="ltr" dominant-baseline="text-before-edge">Human-confirmed action</text></g><g transform="translate(330 296.75) rotate(0 164 14.375)"><text x="164" y="0" font-family="Helvetica, Segoe UI Emoji" font-size="11.5px" fill="#4c1d95" text-anchor="middle" style="white-space: pre;" direction="ltr" dominant-baseline="text-before-edge">confirmation point · approver</text><text x="164" y="14.375" font-family="Helvetica, Segoe UI Emoji" font-size="11.5px" fill="#4c1d95" text-anchor="middle" style="white-space: pre;" direction="ltr" dominant-baseline="text-before-edge">action traceability · test evidence</text></g><g stroke-linecap="round"><g transform="translate(234 305) rotate(0 45 -1.5)"><path d="M0 0 C20.37 -0.68, 40.75 -1.36, 90 -3 M0 0 C21.94 -0.73, 43.87 -1.46, 90 -3" stroke="#7c3aed" stroke-width="2" fill="none"></path></g><g transform="translate(234 305) rotate(0 45 -1.5)"><path d="M62.17 8.19 C68.47 5.66, 74.77 3.13, 90 -3 M62.17 8.19 C68.95 5.47, 75.73 2.74, 90 -3" stroke="#7c3aed" stroke-width="2" fill="none"></path></g><g transform="translate(234 305) rotate(0 45 -1.5)"><path d="M61.48 -12.32 C67.94 -10.21, 74.39 -8.1, 90 -3 M61.48 -12.32 C68.43 -10.05, 75.38 -7.77, 90 -3" stroke="#7c3aed" stroke-width="2" fill="none"></path></g></g><mask></mask><g stroke-linecap="round" transform="translate(324 366) rotate(0 170 44)"><path d="M22 0 C107.48 0, 192.96 0, 318 0 C332.67 0, 340 7.33, 340 22 C340 38.15, 340 54.3, 340 66 C340 80.67, 332.67 88, 318 88 C215.64 88, 113.28 88, 22 88 C7.33 88, 0 80.67, 0 66 C0 56.71, 0 47.41, 0 22 C0 7.33, 7.33 0, 22 0" stroke="none" stroke-width="0" fill="#ede9fe"></path><path d="M22 0 C89.02 0, 156.05 0, 318 0 M22 0 C96.49 0, 170.97 0, 318 0 M318 0 C332.67 0, 340 7.33, 340 22 M318 0 C332.67 0, 340 7.33, 340 22 M340 22 C340 35.03, 340 48.05, 340 66 M340 22 C340 30.8, 340 39.6, 340 66 M340 66 C340 80.67, 332.67 88, 318 88 M340 66 C340 80.67, 332.67 88, 318 88 M318 88 C217.81 88, 117.61 88, 22 88 M318 88 C256.51 88, 195.03 88, 22 88 M22 88 C7.33 88, 0 80.67, 0 66 M22 88 C7.33 88, 0 80.67, 0 66 M0 66 C0 50.51, 0 35.03, 0 22 M0 66 C0 54.84, 0 43.68, 0 22 M0 22 C0 7.33, 7.33 0, 22 0 M0 22 C0 7.33, 7.33 0, 22 0" stroke="#7c3aed" stroke-width="2" fill="none"></path></g><g transform="translate(330 380) rotate(0 164 9.375)"><text x="164" y="0" font-family="Helvetica, Segoe UI Emoji" font-size="15px" fill="#4c1d95" text-anchor="middle" style="white-space: pre;" direction="ltr" dominant-baseline="text-before-edge">Bounded delegated-action</text></g><g transform="translate(330 404.75) rotate(0 164 14.375)"><text x="164" y="0" font-family="Helvetica, Segoe UI Emoji" font-size="11.5px" fill="#4c1d95" text-anchor="middle" style="white-space: pre;" direction="ltr" dominant-baseline="text-before-edge">authority &amp; tool inventory · safeguards</text><text x="164" y="14.375" font-family="Helvetica, Segoe UI Emoji" font-size="11.5px" fill="#4c1d95" text-anchor="middle" style="white-space: pre;" direction="ltr" dominant-baseline="text-before-edge">exception path · negative testing</text></g><g stroke-linecap="round"><g transform="translate(234 305) rotate(0 45 52.5)"><path d="M0 0 C20.4 23.79, 40.79 47.59, 90 105 M0 0 C24.78 28.92, 49.57 57.83, 90 105" stroke="#7c3aed" stroke-width="2" fill="none"></path></g><g transform="translate(234 305) rotate(0 45 52.5)"><path d="M63.86 90.27 C69.79 93.61, 75.71 96.95, 90 105 M63.86 90.27 C71.06 94.33, 78.26 98.38, 90 105" stroke="#7c3aed" stroke-width="2" fill="none"></path></g><g transform="translate(234 305) rotate(0 45 52.5)"><path d="M79.44 76.92 C81.84 83.28, 84.23 89.65, 90 105 M79.44 76.92 C82.35 84.65, 85.26 92.38, 90 105" stroke="#7c3aed" stroke-width="2" fill="none"></path></g></g><mask></mask><g stroke-linecap="round" transform="translate(324 474) rotate(0 170 44)"><path d="M22 0 C83.54 0, 145.09 0, 318 0 C332.67 0, 340 7.33, 340 22 C340 39.03, 340 56.06, 340 66 C340 80.67, 332.67 88, 318 88 C220.49 88, 122.97 88, 22 88 C7.33 88, 0 80.67, 0 66 C0 55.76, 0 45.52, 0 22 C0 7.33, 7.33 0, 22 0" stroke="none" stroke-width="0" fill="#ede9fe"></path><path d="M22 0 C89.1 0, 156.2 0, 318 0 M22 0 C105.86 0, 189.71 0, 318 0 M318 0 C332.67 0, 340 7.33, 340 22 M318 0 C332.67 0, 340 7.33, 340 22 M340 22 C340 34.15, 340 46.3, 340 66 M340 22 C340 31.38, 340 40.77, 340 66 M340 66 C340 80.67, 332.67 88, 318 88 M340 66 C340 80.67, 332.67 88, 318 88 M318 88 C254.02 88, 190.04 88, 22 88 M318 88 C231.08 88, 144.15 88, 22 88 M22 88 C7.33 88, 0 80.67, 0 66 M22 88 C7.33 88, 0 80.67, 0 66 M0 66 C0 56.61, 0 47.23, 0 22 M0 66 C0 51.35, 0 36.7, 0 22 M0 22 C0 7.33, 7.33 0, 22 0 M0 22 C0 7.33, 7.33 0, 22 0" stroke="#7c3aed" stroke-width="2" fill="none"></path></g><g transform="translate(330 488) rotate(0 164 9.375)"><text x="164" y="0" font-family="Helvetica, Segoe UI Emoji" font-size="15px" fill="#4c1d95" text-anchor="middle" style="white-space: pre;" direction="ltr" dominant-baseline="text-before-edge">Coordinating agent</text></g><g transform="translate(330 512.75) rotate(0 164 14.375)"><text x="164" y="0" font-family="Helvetica, Segoe UI Emoji" font-size="11.5px" fill="#4c1d95" text-anchor="middle" style="white-space: pre;" direction="ltr" dominant-baseline="text-before-edge">+ orchestration boundary · dependency map</text><text x="164" y="14.375" font-family="Helvetica, Segoe UI Emoji" font-size="11.5px" fill="#4c1d95" text-anchor="middle" style="white-space: pre;" direction="ltr" dominant-baseline="text-before-edge">escalation · recovery · per-path evidence</text></g><g stroke-linecap="round"><g transform="translate(234 305) rotate(0 45 106.5)"><path d="M0 0 C20.42 48.32, 40.84 96.65, 90 213 M0 0 C27.63 65.4, 55.27 130.8, 90 213" stroke="#7c3aed" stroke-width="2" fill="none"></path></g><g transform="translate(234 305) rotate(0 45 106.5)"><path d="M69.58 191.03 C74.21 196.01, 78.84 201, 90 213 M69.58 191.03 C75.85 197.77, 82.12 204.52, 90 213" stroke="#7c3aed" stroke-width="2" fill="none"></path></g><g transform="translate(234 305) rotate(0 45 106.5)"><path d="M88.48 183.04 C88.82 189.84, 89.17 196.63, 90 213 M88.48 183.04 C88.95 192.24, 89.41 201.44, 90 213" stroke="#7c3aed" stroke-width="2" fill="none"></path></g></g><mask></mask><g transform="translate(694 150) rotate(0 130 16.25)"><text x="0" y="0" font-family="Helvetica, Segoe UI Emoji" font-size="13px" fill="#334155" text-anchor="start" style="white-space: pre;" direction="ltr" dominant-baseline="text-before-edge">↑ minimum admission focus rises</text><text x="0" y="16.25" font-family="Helvetica, Segoe UI Emoji" font-size="13px" fill="#334155" text-anchor="start" style="white-space: pre;" direction="ltr" dominant-baseline="text-before-edge">with the highest-impact action</text></g><g stroke-linecap="round" transform="translate(24 470) rotate(0 105 40)"><path d="M20 0 C55.16 0, 90.32 0, 190 0 C203.33 0, 210 6.67, 210 20 C210 34.48, 210 48.95, 210 60 C210 73.33, 203.33 80, 190 80 C154.47 80, 118.95 80, 20 80 C6.67 80, 0 73.33, 0 60 C0 49.62, 0 39.24, 0 20 C0 6.67, 6.67 0, 20 0" stroke="none" stroke-width="0" fill="#ffe4e6"></path><path d="M20 0 C58.59 0, 97.18 0, 190 0 M20 0 C74.89 0, 129.77 0, 190 0 M190 0 C203.33 0, 210 6.67, 210 20 M190 0 C203.33 0, 210 6.67, 210 20 M210 20 C210 32.05, 210 44.11, 210 60 M210 20 C210 31.19, 210 42.38, 210 60 M210 60 C210 73.33, 203.33 80, 190 80 M210 60 C210 73.33, 203.33 80, 190 80 M190 80 C136.75 80, 83.5 80, 20 80 M190 80 C155.82 80, 121.63 80, 20 80 M20 80 C6.67 80, 0 73.33, 0 60 M20 80 C6.67 80, 0 73.33, 0 60 M0 60 C0 48.4, 0 36.8, 0 20 M0 60 C0 48.72, 0 37.43, 0 20 M0 20 C0 6.67, 6.67 0, 20 0 M0 20 C0 6.67, 6.67 0, 20 0" stroke="#e11d48" stroke-width="2" fill="none"></path></g><g transform="translate(30 484) rotate(0 99 9.375)"><text x="99" y="0" font-family="Helvetica, Segoe UI Emoji" font-size="15px" fill="#881337" text-anchor="middle" style="white-space: pre;" direction="ltr" dominant-baseline="text-before-edge">Unclassified</text></g><g transform="translate(30 508.75) rotate(0 99 7.1875)"><text x="99" y="0" font-family="Helvetica, Segoe UI Emoji" font-size="11.5px" fill="#881337" text-anchor="middle" style="white-space: pre;" direction="ltr" dominant-baseline="text-before-edge">authority unclear → do not admit</text></g><g stroke-linecap="round"><g transform="translate(129 360) rotate(0 0 55)"><path d="M0 0 C0 24.99, 0 49.98, 0 110" stroke="#e11d48" stroke-width="2.5" fill="none" stroke-dasharray="8 10"></path></g><g transform="translate(129 360) rotate(0 0 55)"><path d="M-10.26 81.81 C-7.93 88.21, -5.6 94.62, 0 110" stroke="#e11d48" stroke-width="2.5" fill="none"></path></g><g transform="translate(129 360) rotate(0 0 55)"><path d="M10.26 81.81 C7.93 88.21, 5.6 94.62, 0 110" stroke="#e11d48" stroke-width="2.5" fill="none"></path></g></g><mask></mask></svg>